<mxfile host="Electron" agent="Mozilla/5.0 (Windows NT 10.0; Win64; x64) AppleWebKit/537.36 (KHTML, like Gecko) draw.io/27.0.5 Chrome/134.0.6998.205 Electron/35.3.0 Safari/537.36" version="27.0.5" pages="2">
  <diagram name="Rule:Arrows" id="Hi_lljC79ex2jj02dXLJ">
    <mxGraphModel dx="2160" dy="1258" grid="1" gridSize="10" guides="1" tooltips="1" connect="1" arrows="1" fold="1" page="1" pageScale="1" pageWidth="827" pageHeight="1169" math="0" shadow="0">
      <root>
        <mxCell id="0" />
        <mxCell id="1" parent="0" />
        <mxCell id="btlAKmYHmrUZgqomjp6I-1" value="Rules or lack of?" style="text;html=1;align=center;verticalAlign=middle;whiteSpace=wrap;rounded=0;fontStyle=1;fontSize=18;labelBorderColor=none;" vertex="1" parent="1">
          <mxGeometry x="40" y="20" width="150" height="30" as="geometry" />
        </mxCell>
        <object label="&lt;div&gt;&lt;b&gt;Condition&lt;/b&gt;&lt;/div&gt;&lt;div&gt;&lt;font style=&quot;font-size: 10px;&quot;&gt;%expression%&lt;/font&gt;&lt;/div&gt;" dcafstype="conditionblock" placeholders="1" expression="??" id="btlAKmYHmrUZgqomjp6I-2">
          <mxCell style="rounded=0;whiteSpace=wrap;html=1;fillColor=#bac8d3;strokeColor=#23445d;" vertex="1" parent="1">
            <mxGeometry x="110" y="140" width="120" height="60" as="geometry" />
          </mxCell>
        </object>
        <mxCell id="btlAKmYHmrUZgqomjp6I-3" value="" style="endArrow=classic;html=1;rounded=0;exitX=1;exitY=0.5;exitDx=0;exitDy=0;fillColor=#bac8d3;strokeColor=#23445d;" edge="1" source="btlAKmYHmrUZgqomjp6I-2" parent="1">
          <mxGeometry width="50" height="50" relative="1" as="geometry">
            <mxPoint x="250" y="170" as="sourcePoint" />
            <mxPoint x="330" y="170" as="targetPoint" />
          </mxGeometry>
        </mxCell>
        <mxCell id="btlAKmYHmrUZgqomjp6I-4" value="next" style="edgeLabel;html=1;align=center;verticalAlign=middle;resizable=0;points=[];" vertex="1" connectable="0" parent="btlAKmYHmrUZgqomjp6I-3">
          <mxGeometry x="-0.0118" y="-1" relative="1" as="geometry">
            <mxPoint y="-1" as="offset" />
          </mxGeometry>
        </mxCell>
        <mxCell id="btlAKmYHmrUZgqomjp6I-5" value="" style="endArrow=classic;html=1;rounded=0;exitX=0.5;exitY=1;exitDx=0;exitDy=0;fillColor=#bac8d3;strokeColor=#23445d;" edge="1" source="btlAKmYHmrUZgqomjp6I-2" parent="1">
          <mxGeometry width="50" height="50" relative="1" as="geometry">
            <mxPoint x="230" y="260" as="sourcePoint" />
            <mxPoint x="330" y="230" as="targetPoint" />
            <Array as="points">
              <mxPoint x="170" y="230" />
            </Array>
          </mxGeometry>
        </mxCell>
        <mxCell id="btlAKmYHmrUZgqomjp6I-6" value="fail" style="edgeLabel;html=1;align=center;verticalAlign=middle;resizable=0;points=[];" vertex="1" connectable="0" parent="btlAKmYHmrUZgqomjp6I-5">
          <mxGeometry x="-0.0118" y="-1" relative="1" as="geometry">
            <mxPoint y="-1" as="offset" />
          </mxGeometry>
        </mxCell>
        <mxCell id="btlAKmYHmrUZgqomjp6I-7" value="Parser doesn&#39;t care about direction or used attachment point" style="text;html=1;align=left;verticalAlign=middle;whiteSpace=wrap;rounded=0;fontStyle=1;fontSize=14;" vertex="1" parent="1">
          <mxGeometry x="80" y="80" width="450" height="30" as="geometry" />
        </mxCell>
        <object label="&lt;div&gt;&lt;b&gt;Condition&lt;/b&gt;&lt;/div&gt;&lt;div&gt;&lt;font style=&quot;font-size: 10px;&quot;&gt;%expression%&lt;/font&gt;&lt;/div&gt;" dcafstype="conditionblock" placeholders="1" expression="??" id="btlAKmYHmrUZgqomjp6I-8">
          <mxCell style="rounded=0;whiteSpace=wrap;html=1;fillColor=#bac8d3;strokeColor=#23445d;" vertex="1" parent="1">
            <mxGeometry x="430" y="140" width="120" height="60" as="geometry" />
          </mxCell>
        </object>
        <mxCell id="btlAKmYHmrUZgqomjp6I-9" value="" style="endArrow=classic;html=1;rounded=0;exitX=1;exitY=0.5;exitDx=0;exitDy=0;fillColor=#bac8d3;strokeColor=#23445d;entryX=0;entryY=0.5;entryDx=0;entryDy=0;" edge="1" parent="1" source="btlAKmYHmrUZgqomjp6I-8">
          <mxGeometry width="50" height="50" relative="1" as="geometry">
            <mxPoint x="570" y="170" as="sourcePoint" />
            <mxPoint x="660" y="170" as="targetPoint" />
          </mxGeometry>
        </mxCell>
        <mxCell id="btlAKmYHmrUZgqomjp6I-10" value="next" style="edgeLabel;html=1;align=center;verticalAlign=middle;resizable=0;points=[];" vertex="1" connectable="0" parent="btlAKmYHmrUZgqomjp6I-9">
          <mxGeometry x="-0.0118" y="-1" relative="1" as="geometry">
            <mxPoint y="-1" as="offset" />
          </mxGeometry>
        </mxCell>
        <mxCell id="btlAKmYHmrUZgqomjp6I-13" value="fail" style="endArrow=classic;html=1;rounded=0;exitX=1;exitY=0.75;exitDx=0;exitDy=0;" edge="1" parent="1" source="btlAKmYHmrUZgqomjp6I-8">
          <mxGeometry width="50" height="50" relative="1" as="geometry">
            <mxPoint x="330" y="330" as="sourcePoint" />
            <mxPoint x="660" y="185" as="targetPoint" />
          </mxGeometry>
        </mxCell>
        <object label="&lt;div&gt;&lt;b&gt;Condition&lt;/b&gt;&lt;/div&gt;&lt;div&gt;&lt;font style=&quot;font-size: 10px;&quot;&gt;%expression%&lt;/font&gt;&lt;/div&gt;" dcafstype="conditionblock" placeholders="1" expression="??" id="btlAKmYHmrUZgqomjp6I-14">
          <mxCell style="rounded=0;whiteSpace=wrap;html=1;fillColor=#bac8d3;strokeColor=#23445d;" vertex="1" parent="1">
            <mxGeometry x="430" y="290" width="120" height="60" as="geometry" />
          </mxCell>
        </object>
        <mxCell id="btlAKmYHmrUZgqomjp6I-15" value="" style="endArrow=classic;html=1;rounded=0;exitX=1;exitY=0;exitDx=0;exitDy=0;fillColor=#bac8d3;strokeColor=#23445d;" edge="1" parent="1" source="btlAKmYHmrUZgqomjp6I-14">
          <mxGeometry width="50" height="50" relative="1" as="geometry">
            <mxPoint x="570" y="320" as="sourcePoint" />
            <mxPoint x="590" y="260" as="targetPoint" />
          </mxGeometry>
        </mxCell>
        <mxCell id="btlAKmYHmrUZgqomjp6I-16" value="next" style="edgeLabel;html=1;align=center;verticalAlign=middle;resizable=0;points=[];" vertex="1" connectable="0" parent="btlAKmYHmrUZgqomjp6I-15">
          <mxGeometry x="-0.0118" y="-1" relative="1" as="geometry">
            <mxPoint y="-1" as="offset" />
          </mxGeometry>
        </mxCell>
        <mxCell id="btlAKmYHmrUZgqomjp6I-17" value="fail" style="endArrow=classic;html=1;rounded=0;exitX=1;exitY=0.75;exitDx=0;exitDy=0;" edge="1" parent="1" source="btlAKmYHmrUZgqomjp6I-14">
          <mxGeometry width="50" height="50" relative="1" as="geometry">
            <mxPoint x="570" y="350" as="sourcePoint" />
            <mxPoint x="420" y="270" as="targetPoint" />
            <Array as="points">
              <mxPoint x="570" y="335" />
              <mxPoint x="570" y="370" />
              <mxPoint x="420" y="370" />
            </Array>
          </mxGeometry>
        </mxCell>
        <object label="&lt;div&gt;&lt;b&gt;Condition&lt;/b&gt;&lt;/div&gt;&lt;div&gt;&lt;font style=&quot;font-size: 10px;&quot;&gt;%expression%&lt;/font&gt;&lt;/div&gt;" dcafstype="conditionblock" placeholders="1" expression="??" id="btlAKmYHmrUZgqomjp6I-18">
          <mxCell style="rounded=0;whiteSpace=wrap;html=1;fillColor=#bac8d3;strokeColor=#23445d;" vertex="1" parent="1">
            <mxGeometry x="110" y="290" width="120" height="60" as="geometry" />
          </mxCell>
        </object>
        <mxCell id="btlAKmYHmrUZgqomjp6I-19" value="" style="endArrow=classic;html=1;rounded=0;exitX=0.5;exitY=1;exitDx=0;exitDy=0;fillColor=#bac8d3;strokeColor=#23445d;" edge="1" parent="1" source="btlAKmYHmrUZgqomjp6I-18">
          <mxGeometry width="50" height="50" relative="1" as="geometry">
            <mxPoint x="250" y="320" as="sourcePoint" />
            <mxPoint x="170" y="400" as="targetPoint" />
          </mxGeometry>
        </mxCell>
        <mxCell id="btlAKmYHmrUZgqomjp6I-20" value="next" style="edgeLabel;html=1;align=center;verticalAlign=middle;resizable=0;points=[];" vertex="1" connectable="0" parent="btlAKmYHmrUZgqomjp6I-19">
          <mxGeometry x="-0.0118" y="-1" relative="1" as="geometry">
            <mxPoint y="-1" as="offset" />
          </mxGeometry>
        </mxCell>
        <mxCell id="btlAKmYHmrUZgqomjp6I-21" value="fail" style="endArrow=classic;html=1;rounded=0;exitX=1;exitY=0;exitDx=0;exitDy=0;" edge="1" parent="1" source="btlAKmYHmrUZgqomjp6I-18">
          <mxGeometry width="50" height="50" relative="1" as="geometry">
            <mxPoint x="10" y="480" as="sourcePoint" />
            <mxPoint x="280" y="290" as="targetPoint" />
          </mxGeometry>
        </mxCell>
        <mxCell id="btlAKmYHmrUZgqomjp6I-24" value="But the parser won&#39;t gues, so labels are needed instead" style="text;html=1;align=left;verticalAlign=middle;whiteSpace=wrap;rounded=0;fontStyle=1;fontSize=14;" vertex="1" parent="1">
          <mxGeometry x="80" y="420" width="440" height="30" as="geometry" />
        </mxCell>
        <mxCell id="btlAKmYHmrUZgqomjp6I-25" value="" style="endArrow=none;html=1;rounded=0;strokeWidth=4;" edge="1" parent="1">
          <mxGeometry width="50" height="50" relative="1" as="geometry">
            <mxPoint x="360" y="164.66" as="sourcePoint" />
            <mxPoint x="400" y="164.66" as="targetPoint" />
          </mxGeometry>
        </mxCell>
        <mxCell id="btlAKmYHmrUZgqomjp6I-26" value="" style="endArrow=none;html=1;rounded=0;strokeWidth=4;" edge="1" parent="1">
          <mxGeometry width="50" height="50" relative="1" as="geometry">
            <mxPoint x="360" y="174.66" as="sourcePoint" />
            <mxPoint x="400" y="174.66" as="targetPoint" />
          </mxGeometry>
        </mxCell>
        <mxCell id="btlAKmYHmrUZgqomjp6I-27" value="" style="endArrow=none;html=1;rounded=0;strokeWidth=4;" edge="1" parent="1">
          <mxGeometry width="50" height="50" relative="1" as="geometry">
            <mxPoint x="360" y="314.65999999999997" as="sourcePoint" />
            <mxPoint x="400" y="314.65999999999997" as="targetPoint" />
          </mxGeometry>
        </mxCell>
        <mxCell id="btlAKmYHmrUZgqomjp6I-28" value="" style="endArrow=none;html=1;rounded=0;strokeWidth=4;" edge="1" parent="1">
          <mxGeometry width="50" height="50" relative="1" as="geometry">
            <mxPoint x="360" y="324.65999999999997" as="sourcePoint" />
            <mxPoint x="400" y="324.65999999999997" as="targetPoint" />
          </mxGeometry>
        </mxCell>
        <mxCell id="btlAKmYHmrUZgqomjp6I-29" value="" style="endArrow=none;html=1;rounded=0;strokeWidth=4;" edge="1" parent="1">
          <mxGeometry width="50" height="50" relative="1" as="geometry">
            <mxPoint x="470" y="260" as="sourcePoint" />
            <mxPoint x="470" y="230" as="targetPoint" />
          </mxGeometry>
        </mxCell>
        <mxCell id="btlAKmYHmrUZgqomjp6I-30" value="" style="endArrow=none;html=1;rounded=0;strokeWidth=4;" edge="1" parent="1">
          <mxGeometry width="50" height="50" relative="1" as="geometry">
            <mxPoint x="480" y="260" as="sourcePoint" />
            <mxPoint x="480" y="230" as="targetPoint" />
          </mxGeometry>
        </mxCell>
        <mxCell id="btlAKmYHmrUZgqomjp6I-31" value="" style="endArrow=none;html=1;rounded=0;strokeWidth=4;" edge="1" parent="1">
          <mxGeometry width="50" height="50" relative="1" as="geometry">
            <mxPoint x="164.76" y="270" as="sourcePoint" />
            <mxPoint x="164.76" y="240" as="targetPoint" />
          </mxGeometry>
        </mxCell>
        <mxCell id="btlAKmYHmrUZgqomjp6I-32" value="" style="endArrow=none;html=1;rounded=0;strokeWidth=4;" edge="1" parent="1">
          <mxGeometry width="50" height="50" relative="1" as="geometry">
            <mxPoint x="174.76" y="270" as="sourcePoint" />
            <mxPoint x="174.76" y="240" as="targetPoint" />
          </mxGeometry>
        </mxCell>
        <object label="&lt;div&gt;&lt;b&gt;Condition&lt;/b&gt;&lt;/div&gt;&lt;div&gt;&lt;font style=&quot;font-size: 10px;&quot;&gt;%expression%&lt;/font&gt;&lt;/div&gt;" dcafstype="conditionblock" placeholders="1" expression="??" id="btlAKmYHmrUZgqomjp6I-33">
          <mxCell style="rounded=0;whiteSpace=wrap;html=1;fillColor=#bac8d3;strokeColor=#23445d;" vertex="1" parent="1">
            <mxGeometry x="110" y="460" width="120" height="60" as="geometry" />
          </mxCell>
        </object>
        <mxCell id="btlAKmYHmrUZgqomjp6I-34" value="" style="endArrow=classic;html=1;rounded=0;exitX=1;exitY=0.5;exitDx=0;exitDy=0;fillColor=#bac8d3;strokeColor=#23445d;" edge="1" parent="1" source="btlAKmYHmrUZgqomjp6I-33">
          <mxGeometry width="50" height="50" relative="1" as="geometry">
            <mxPoint x="250" y="490" as="sourcePoint" />
            <mxPoint x="330" y="490" as="targetPoint" />
          </mxGeometry>
        </mxCell>
        <mxCell id="btlAKmYHmrUZgqomjp6I-35" value="next" style="edgeLabel;html=1;align=center;verticalAlign=middle;resizable=0;points=[];" vertex="1" connectable="0" parent="btlAKmYHmrUZgqomjp6I-34">
          <mxGeometry x="-0.0118" y="-1" relative="1" as="geometry">
            <mxPoint y="-1" as="offset" />
          </mxGeometry>
        </mxCell>
        <mxCell id="btlAKmYHmrUZgqomjp6I-36" value="" style="endArrow=classic;html=1;rounded=0;exitX=0.5;exitY=1;exitDx=0;exitDy=0;fillColor=#bac8d3;strokeColor=#23445d;" edge="1" parent="1" source="btlAKmYHmrUZgqomjp6I-33">
          <mxGeometry width="50" height="50" relative="1" as="geometry">
            <mxPoint x="230" y="580" as="sourcePoint" />
            <mxPoint x="330" y="550" as="targetPoint" />
            <Array as="points">
              <mxPoint x="170" y="550" />
            </Array>
          </mxGeometry>
        </mxCell>
        <mxCell id="btlAKmYHmrUZgqomjp6I-37" value="fail" style="edgeLabel;html=1;align=center;verticalAlign=middle;resizable=0;points=[];" vertex="1" connectable="0" parent="btlAKmYHmrUZgqomjp6I-36">
          <mxGeometry x="-0.0118" y="-1" relative="1" as="geometry">
            <mxPoint y="-1" as="offset" />
          </mxGeometry>
        </mxCell>
        <object label="&lt;div&gt;&lt;b&gt;Condition&lt;/b&gt;&lt;/div&gt;&lt;div&gt;&lt;font style=&quot;font-size: 10px;&quot;&gt;%expression%&lt;/font&gt;&lt;/div&gt;" dcafstype="conditionblock" placeholders="1" expression="??" id="btlAKmYHmrUZgqomjp6I-38">
          <mxCell style="rounded=0;whiteSpace=wrap;html=1;fillColor=#bac8d3;strokeColor=#23445d;" vertex="1" parent="1">
            <mxGeometry x="430" y="460" width="120" height="60" as="geometry" />
          </mxCell>
        </object>
        <mxCell id="btlAKmYHmrUZgqomjp6I-39" value="" style="endArrow=classic;html=1;rounded=0;exitX=1;exitY=0.5;exitDx=0;exitDy=0;fillColor=#bac8d3;strokeColor=#23445d;" edge="1" parent="1" source="btlAKmYHmrUZgqomjp6I-38">
          <mxGeometry width="50" height="50" relative="1" as="geometry">
            <mxPoint x="570" y="490" as="sourcePoint" />
            <mxPoint x="630" y="490" as="targetPoint" />
          </mxGeometry>
        </mxCell>
        <mxCell id="btlAKmYHmrUZgqomjp6I-41" value="" style="endArrow=classic;html=1;rounded=0;exitX=0.5;exitY=1;exitDx=0;exitDy=0;fillColor=#bac8d3;strokeColor=#23445d;" edge="1" parent="1" source="btlAKmYHmrUZgqomjp6I-38">
          <mxGeometry width="50" height="50" relative="1" as="geometry">
            <mxPoint x="550" y="580" as="sourcePoint" />
            <mxPoint x="630" y="550" as="targetPoint" />
            <Array as="points">
              <mxPoint x="490" y="550" />
            </Array>
          </mxGeometry>
        </mxCell>
        <mxCell id="btlAKmYHmrUZgqomjp6I-43" value="" style="endArrow=none;html=1;rounded=0;fillColor=#f8cecc;strokeColor=#b85450;" edge="1" parent="1">
          <mxGeometry width="50" height="50" relative="1" as="geometry">
            <mxPoint x="410" y="560" as="sourcePoint" />
            <mxPoint x="620" y="430" as="targetPoint" />
          </mxGeometry>
        </mxCell>
        <mxCell id="btlAKmYHmrUZgqomjp6I-45" value="And those are predefined." style="text;html=1;align=left;verticalAlign=middle;whiteSpace=wrap;rounded=0;fontStyle=1;fontSize=14;" vertex="1" parent="1">
          <mxGeometry x="120" y="580" width="200" height="30" as="geometry" />
        </mxCell>
        <object label="&lt;div&gt;&lt;b&gt;Condition&lt;/b&gt;&lt;/div&gt;&lt;div&gt;&lt;font style=&quot;font-size: 10px;&quot;&gt;%expression%&lt;/font&gt;&lt;/div&gt;" dcafstype="conditionblock" placeholders="1" expression="??" id="btlAKmYHmrUZgqomjp6I-47">
          <mxCell style="rounded=0;whiteSpace=wrap;html=1;fillColor=#bac8d3;strokeColor=#23445d;" vertex="1" parent="1">
            <mxGeometry x="120" y="630" width="120" height="60" as="geometry" />
          </mxCell>
        </object>
        <mxCell id="btlAKmYHmrUZgqomjp6I-48" value="" style="endArrow=classic;html=1;rounded=0;exitX=1;exitY=0.5;exitDx=0;exitDy=0;fillColor=#bac8d3;strokeColor=#23445d;entryX=0;entryY=0.5;entryDx=0;entryDy=0;" edge="1" parent="1" source="btlAKmYHmrUZgqomjp6I-47">
          <mxGeometry width="50" height="50" relative="1" as="geometry">
            <mxPoint x="260" y="660" as="sourcePoint" />
            <mxPoint x="350" y="660" as="targetPoint" />
          </mxGeometry>
        </mxCell>
        <mxCell id="btlAKmYHmrUZgqomjp6I-49" value="if condition is true" style="edgeLabel;html=1;align=center;verticalAlign=middle;resizable=0;points=[];" vertex="1" connectable="0" parent="btlAKmYHmrUZgqomjp6I-48">
          <mxGeometry x="-0.0118" y="-1" relative="1" as="geometry">
            <mxPoint y="-1" as="offset" />
          </mxGeometry>
        </mxCell>
        <mxCell id="btlAKmYHmrUZgqomjp6I-50" value="" style="endArrow=classic;html=1;rounded=0;exitX=0.5;exitY=1;exitDx=0;exitDy=0;fillColor=#bac8d3;strokeColor=#23445d;" edge="1" parent="1" source="btlAKmYHmrUZgqomjp6I-47">
          <mxGeometry width="50" height="50" relative="1" as="geometry">
            <mxPoint x="240" y="750" as="sourcePoint" />
            <mxPoint x="340" y="720" as="targetPoint" />
            <Array as="points">
              <mxPoint x="180" y="720" />
            </Array>
          </mxGeometry>
        </mxCell>
        <mxCell id="btlAKmYHmrUZgqomjp6I-51" value="not true" style="edgeLabel;html=1;align=center;verticalAlign=middle;resizable=0;points=[];textShadow=0;" vertex="1" connectable="0" parent="btlAKmYHmrUZgqomjp6I-50">
          <mxGeometry x="-0.0118" y="-1" relative="1" as="geometry">
            <mxPoint y="-1" as="offset" />
          </mxGeometry>
        </mxCell>
        <mxCell id="btlAKmYHmrUZgqomjp6I-52" value="" style="endArrow=none;html=1;rounded=0;fillColor=#f8cecc;strokeColor=#b85450;" edge="1" parent="1">
          <mxGeometry width="50" height="50" relative="1" as="geometry">
            <mxPoint x="110" y="740" as="sourcePoint" />
            <mxPoint x="320" y="610" as="targetPoint" />
          </mxGeometry>
        </mxCell>
        <mxCell id="btlAKmYHmrUZgqomjp6I-53" value="But some offer alternatives (check relevant docs)" style="text;html=1;align=left;verticalAlign=middle;whiteSpace=wrap;rounded=0;fontStyle=1;fontSize=14;" vertex="1" parent="1">
          <mxGeometry x="120" y="760" width="350" height="30" as="geometry" />
        </mxCell>
        <object label="&lt;div&gt;&lt;b&gt;Condition&lt;/b&gt;&lt;/div&gt;&lt;div&gt;&lt;font style=&quot;font-size: 10px;&quot;&gt;%expression%&lt;/font&gt;&lt;/div&gt;" dcafstype="conditionblock" placeholders="1" expression="??" id="btlAKmYHmrUZgqomjp6I-54">
          <mxCell style="rounded=0;whiteSpace=wrap;html=1;fillColor=#bac8d3;strokeColor=#23445d;" vertex="1" parent="1">
            <mxGeometry x="120" y="800" width="120" height="60" as="geometry" />
          </mxCell>
        </object>
        <mxCell id="btlAKmYHmrUZgqomjp6I-55" value="" style="endArrow=classic;html=1;rounded=0;exitX=1;exitY=0.5;exitDx=0;exitDy=0;fillColor=#bac8d3;strokeColor=#23445d;" edge="1" parent="1" source="btlAKmYHmrUZgqomjp6I-54">
          <mxGeometry width="50" height="50" relative="1" as="geometry">
            <mxPoint x="260" y="830" as="sourcePoint" />
            <mxPoint x="340" y="830" as="targetPoint" />
          </mxGeometry>
        </mxCell>
        <mxCell id="btlAKmYHmrUZgqomjp6I-56" value="true" style="edgeLabel;html=1;align=center;verticalAlign=middle;resizable=0;points=[];" vertex="1" connectable="0" parent="btlAKmYHmrUZgqomjp6I-55">
          <mxGeometry x="-0.0118" y="-1" relative="1" as="geometry">
            <mxPoint y="-1" as="offset" />
          </mxGeometry>
        </mxCell>
        <mxCell id="btlAKmYHmrUZgqomjp6I-57" value="" style="endArrow=classic;html=1;rounded=0;exitX=0.5;exitY=1;exitDx=0;exitDy=0;fillColor=#bac8d3;strokeColor=#23445d;" edge="1" parent="1" source="btlAKmYHmrUZgqomjp6I-54">
          <mxGeometry width="50" height="50" relative="1" as="geometry">
            <mxPoint x="240" y="920" as="sourcePoint" />
            <mxPoint x="340" y="890" as="targetPoint" />
            <Array as="points">
              <mxPoint x="180" y="890" />
            </Array>
          </mxGeometry>
        </mxCell>
        <mxCell id="btlAKmYHmrUZgqomjp6I-58" value="false" style="edgeLabel;html=1;align=center;verticalAlign=middle;resizable=0;points=[];" vertex="1" connectable="0" parent="btlAKmYHmrUZgqomjp6I-57">
          <mxGeometry x="-0.0118" y="-1" relative="1" as="geometry">
            <mxPoint y="-1" as="offset" />
          </mxGeometry>
        </mxCell>
        <object label="&lt;div&gt;&lt;b&gt;Condition&lt;/b&gt;&lt;/div&gt;&lt;div&gt;&lt;font style=&quot;font-size: 10px;&quot;&gt;%expression%&lt;/font&gt;&lt;/div&gt;" dcafstype="conditionblock" placeholders="1" expression="??" id="btlAKmYHmrUZgqomjp6I-59">
          <mxCell style="rounded=0;whiteSpace=wrap;html=1;fillColor=#bac8d3;strokeColor=#23445d;" vertex="1" parent="1">
            <mxGeometry x="360" y="800" width="120" height="60" as="geometry" />
          </mxCell>
        </object>
        <mxCell id="btlAKmYHmrUZgqomjp6I-60" value="" style="endArrow=classic;html=1;rounded=0;exitX=1;exitY=0.5;exitDx=0;exitDy=0;fillColor=#bac8d3;strokeColor=#23445d;entryX=0;entryY=0.5;entryDx=0;entryDy=0;" edge="1" parent="1" source="btlAKmYHmrUZgqomjp6I-59">
          <mxGeometry width="50" height="50" relative="1" as="geometry">
            <mxPoint x="500" y="830" as="sourcePoint" />
            <mxPoint x="590" y="830" as="targetPoint" />
          </mxGeometry>
        </mxCell>
        <mxCell id="btlAKmYHmrUZgqomjp6I-61" value="pass" style="edgeLabel;html=1;align=center;verticalAlign=middle;resizable=0;points=[];" vertex="1" connectable="0" parent="btlAKmYHmrUZgqomjp6I-60">
          <mxGeometry x="-0.0118" y="-1" relative="1" as="geometry">
            <mxPoint y="-1" as="offset" />
          </mxGeometry>
        </mxCell>
        <mxCell id="btlAKmYHmrUZgqomjp6I-62" value="" style="endArrow=classic;html=1;rounded=0;exitX=0.5;exitY=1;exitDx=0;exitDy=0;fillColor=#bac8d3;strokeColor=#23445d;" edge="1" parent="1" source="btlAKmYHmrUZgqomjp6I-59">
          <mxGeometry width="50" height="50" relative="1" as="geometry">
            <mxPoint x="480" y="920" as="sourcePoint" />
            <mxPoint x="590" y="890" as="targetPoint" />
            <Array as="points">
              <mxPoint x="420" y="890" />
            </Array>
          </mxGeometry>
        </mxCell>
        <mxCell id="btlAKmYHmrUZgqomjp6I-63" value="fail" style="edgeLabel;html=1;align=center;verticalAlign=middle;resizable=0;points=[];" vertex="1" connectable="0" parent="btlAKmYHmrUZgqomjp6I-62">
          <mxGeometry x="-0.0118" y="-1" relative="1" as="geometry">
            <mxPoint y="-1" as="offset" />
          </mxGeometry>
        </mxCell>
        <object label="&lt;div&gt;&lt;b&gt;Condition&lt;/b&gt;&lt;/div&gt;&lt;div&gt;&lt;font style=&quot;font-size: 10px;&quot;&gt;%expression%&lt;/font&gt;&lt;/div&gt;" dcafstype="conditionblock" placeholders="1" expression="??" id="btlAKmYHmrUZgqomjp6I-64">
          <mxCell style="rounded=0;whiteSpace=wrap;html=1;fillColor=#bac8d3;strokeColor=#23445d;" vertex="1" parent="1">
            <mxGeometry x="120" y="910" width="120" height="60" as="geometry" />
          </mxCell>
        </object>
        <mxCell id="btlAKmYHmrUZgqomjp6I-65" value="" style="endArrow=classic;html=1;rounded=0;exitX=1;exitY=0.5;exitDx=0;exitDy=0;fillColor=#bac8d3;strokeColor=#23445d;" edge="1" parent="1" source="btlAKmYHmrUZgqomjp6I-64">
          <mxGeometry width="50" height="50" relative="1" as="geometry">
            <mxPoint x="260" y="940" as="sourcePoint" />
            <mxPoint x="340" y="940" as="targetPoint" />
          </mxGeometry>
        </mxCell>
        <mxCell id="btlAKmYHmrUZgqomjp6I-66" value="yes" style="edgeLabel;html=1;align=center;verticalAlign=middle;resizable=0;points=[];" vertex="1" connectable="0" parent="btlAKmYHmrUZgqomjp6I-65">
          <mxGeometry x="-0.0118" y="-1" relative="1" as="geometry">
            <mxPoint y="-1" as="offset" />
          </mxGeometry>
        </mxCell>
        <mxCell id="btlAKmYHmrUZgqomjp6I-67" value="" style="endArrow=classic;html=1;rounded=0;exitX=0.5;exitY=1;exitDx=0;exitDy=0;fillColor=#bac8d3;strokeColor=#23445d;" edge="1" parent="1" source="btlAKmYHmrUZgqomjp6I-64">
          <mxGeometry width="50" height="50" relative="1" as="geometry">
            <mxPoint x="240" y="1030" as="sourcePoint" />
            <mxPoint x="340" y="1000" as="targetPoint" />
            <Array as="points">
              <mxPoint x="180" y="1000" />
            </Array>
          </mxGeometry>
        </mxCell>
        <mxCell id="btlAKmYHmrUZgqomjp6I-68" value="no" style="edgeLabel;html=1;align=center;verticalAlign=middle;resizable=0;points=[];" vertex="1" connectable="0" parent="btlAKmYHmrUZgqomjp6I-67">
          <mxGeometry x="-0.0118" y="-1" relative="1" as="geometry">
            <mxPoint y="-1" as="offset" />
          </mxGeometry>
        </mxCell>
        <object label="&lt;div&gt;&lt;b&gt;Condition&lt;/b&gt;&lt;/div&gt;&lt;div&gt;&lt;font style=&quot;font-size: 10px;&quot;&gt;%expression%&lt;/font&gt;&lt;/div&gt;" dcafstype="conditionblock" placeholders="1" expression="??" id="btlAKmYHmrUZgqomjp6I-69">
          <mxCell style="rounded=0;whiteSpace=wrap;html=1;fillColor=#bac8d3;strokeColor=#23445d;" vertex="1" parent="1">
            <mxGeometry x="370" y="910" width="120" height="60" as="geometry" />
          </mxCell>
        </object>
        <mxCell id="btlAKmYHmrUZgqomjp6I-70" value="" style="endArrow=classic;html=1;rounded=0;exitX=1;exitY=0.5;exitDx=0;exitDy=0;fillColor=#bac8d3;strokeColor=#23445d;" edge="1" parent="1" source="btlAKmYHmrUZgqomjp6I-69">
          <mxGeometry width="50" height="50" relative="1" as="geometry">
            <mxPoint x="510" y="940" as="sourcePoint" />
            <mxPoint x="590" y="940" as="targetPoint" />
          </mxGeometry>
        </mxCell>
        <mxCell id="btlAKmYHmrUZgqomjp6I-71" value="ok" style="edgeLabel;html=1;align=center;verticalAlign=middle;resizable=0;points=[];" vertex="1" connectable="0" parent="btlAKmYHmrUZgqomjp6I-70">
          <mxGeometry x="-0.0118" y="-1" relative="1" as="geometry">
            <mxPoint y="-1" as="offset" />
          </mxGeometry>
        </mxCell>
        <mxCell id="btlAKmYHmrUZgqomjp6I-72" value="" style="endArrow=classic;html=1;rounded=0;exitX=0.5;exitY=1;exitDx=0;exitDy=0;fillColor=#bac8d3;strokeColor=#23445d;" edge="1" parent="1" source="btlAKmYHmrUZgqomjp6I-69">
          <mxGeometry width="50" height="50" relative="1" as="geometry">
            <mxPoint x="490" y="1030" as="sourcePoint" />
            <mxPoint x="590" y="1000" as="targetPoint" />
            <Array as="points">
              <mxPoint x="430" y="1000" />
            </Array>
          </mxGeometry>
        </mxCell>
        <mxCell id="btlAKmYHmrUZgqomjp6I-73" value="fail" style="edgeLabel;html=1;align=center;verticalAlign=middle;resizable=0;points=[];" vertex="1" connectable="0" parent="btlAKmYHmrUZgqomjp6I-72">
          <mxGeometry x="-0.0118" y="-1" relative="1" as="geometry">
            <mxPoint y="-1" as="offset" />
          </mxGeometry>
        </mxCell>
        <object label="&lt;b&gt;Origin&lt;/b&gt;&lt;div&gt;%dcafsid%&lt;/div&gt;" dcafstype="originblock" dcafsid="??" placeholders="1" autostart="no" shutdownhook="no" id="btlAKmYHmrUZgqomjp6I-74">
          <mxCell style="rounded=0;whiteSpace=wrap;html=1;fillColor=#f5f5f5;strokeColor=#666666;fontColor=#333333;" vertex="1" parent="1">
            <mxGeometry x="85" y="1060" width="120" height="60" as="geometry" />
          </mxCell>
        </object>
        <mxCell id="btlAKmYHmrUZgqomjp6I-75" value="next" style="endArrow=classic;html=1;rounded=0;exitX=1;exitY=0.5;exitDx=0;exitDy=0;entryX=0;entryY=0.5;entryDx=0;entryDy=0;" edge="1" source="btlAKmYHmrUZgqomjp6I-74" parent="1">
          <mxGeometry x="-0.2" width="50" height="50" relative="1" as="geometry">
            <mxPoint x="355" y="1210" as="sourcePoint" />
            <mxPoint x="275" y="1090" as="targetPoint" />
            <mxPoint as="offset" />
          </mxGeometry>
        </mxCell>
        <mxCell id="btlAKmYHmrUZgqomjp6I-76" value="Only one arrow possible means no guessing, so it will assume you forgot the label &#39;next&#39;" style="text;html=1;align=left;verticalAlign=middle;whiteSpace=wrap;rounded=0;fontStyle=1;fontSize=14;" vertex="1" parent="1">
          <mxGeometry x="80" y="1020" width="600" height="30" as="geometry" />
        </mxCell>
        <object label="&lt;b&gt;Origin&lt;/b&gt;&lt;div&gt;%dcafsid%&lt;/div&gt;" dcafstype="originblock" dcafsid="??" placeholders="1" autostart="no" shutdownhook="no" id="btlAKmYHmrUZgqomjp6I-77">
          <mxCell style="rounded=0;whiteSpace=wrap;html=1;fillColor=#f5f5f5;strokeColor=#666666;fontColor=#333333;" vertex="1" parent="1">
            <mxGeometry x="370" y="1060" width="120" height="60" as="geometry" />
          </mxCell>
        </object>
        <mxCell id="btlAKmYHmrUZgqomjp6I-78" value="" style="endArrow=classic;html=1;rounded=0;exitX=1;exitY=0.5;exitDx=0;exitDy=0;entryX=0;entryY=0.5;entryDx=0;entryDy=0;" edge="1" parent="1" source="btlAKmYHmrUZgqomjp6I-77">
          <mxGeometry x="-0.2" width="50" height="50" relative="1" as="geometry">
            <mxPoint x="640" y="1210" as="sourcePoint" />
            <mxPoint x="560" y="1090" as="targetPoint" />
            <mxPoint as="offset" />
          </mxGeometry>
        </mxCell>
        <mxCell id="btlAKmYHmrUZgqomjp6I-79" value="" style="endArrow=none;html=1;rounded=0;strokeWidth=4;" edge="1" parent="1">
          <mxGeometry width="50" height="50" relative="1" as="geometry">
            <mxPoint x="310" y="1084.58" as="sourcePoint" />
            <mxPoint x="350" y="1084.58" as="targetPoint" />
          </mxGeometry>
        </mxCell>
        <mxCell id="btlAKmYHmrUZgqomjp6I-80" value="" style="endArrow=none;html=1;rounded=0;strokeWidth=4;" edge="1" parent="1">
          <mxGeometry width="50" height="50" relative="1" as="geometry">
            <mxPoint x="310" y="1094.58" as="sourcePoint" />
            <mxPoint x="350" y="1094.58" as="targetPoint" />
          </mxGeometry>
        </mxCell>
        <object label="&lt;div&gt;&lt;b&gt;Condition&lt;/b&gt;&lt;/div&gt;&lt;div&gt;&lt;font style=&quot;font-size: 10px;&quot;&gt;%expression%&lt;/font&gt;&lt;/div&gt;" dcafstype="conditionblock" placeholders="1" expression="??" id="btlAKmYHmrUZgqomjp6I-81">
          <mxCell style="rounded=0;whiteSpace=wrap;html=1;fillColor=#bac8d3;strokeColor=#23445d;" vertex="1" parent="1">
            <mxGeometry x="580" y="1060" width="120" height="60" as="geometry" />
          </mxCell>
        </object>
        <mxCell id="btlAKmYHmrUZgqomjp6I-82" value="" style="endArrow=classic;html=1;rounded=0;exitX=1;exitY=0.5;exitDx=0;exitDy=0;fillColor=#bac8d3;strokeColor=#23445d;entryX=0;entryY=0.5;entryDx=0;entryDy=0;" edge="1" parent="1" source="btlAKmYHmrUZgqomjp6I-81">
          <mxGeometry width="50" height="50" relative="1" as="geometry">
            <mxPoint x="720" y="1090" as="sourcePoint" />
            <mxPoint x="810" y="1090" as="targetPoint" />
          </mxGeometry>
        </mxCell>
        <mxCell id="btlAKmYHmrUZgqomjp6I-86" value="" style="endArrow=none;html=1;rounded=0;fillColor=#f8cecc;strokeColor=#b85450;" edge="1" parent="1">
          <mxGeometry width="50" height="50" relative="1" as="geometry">
            <mxPoint x="570" y="1150" as="sourcePoint" />
            <mxPoint x="780" y="1020" as="targetPoint" />
          </mxGeometry>
        </mxCell>
      </root>
    </mxGraphModel>
  </diagram>
  <diagram id="sO4tUlk4TfM99UezwLR2" name="Rule:Visuals">
    <mxGraphModel dx="2052" dy="1195" grid="1" gridSize="10" guides="1" tooltips="1" connect="1" arrows="1" fold="1" page="1" pageScale="1" pageWidth="827" pageHeight="1169" math="0" shadow="0">
      <root>
        <mxCell id="0" />
        <mxCell id="1" parent="0" />
        <mxCell id="uMPdWCJCQWMvYnh4Kry2-1" value="Parser doesn&#39;t care about visuals" style="text;html=1;align=left;verticalAlign=middle;whiteSpace=wrap;rounded=0;fontStyle=1;fontSize=14;" vertex="1" parent="1">
          <mxGeometry x="80" y="80" width="450" height="30" as="geometry" />
        </mxCell>
        <object label="&lt;div&gt;&lt;b&gt;Condition&lt;/b&gt;&lt;/div&gt;&lt;div&gt;&lt;font style=&quot;font-size: 10px;&quot;&gt;%expression%&lt;/font&gt;&lt;/div&gt;" dcafstype="conditionblock" placeholders="1" expression="??" id="7gZpI3A7Bq8tWj9i9B51-1">
          <mxCell style="rounded=0;whiteSpace=wrap;html=1;fillColor=#bac8d3;strokeColor=#23445d;" vertex="1" parent="1">
            <mxGeometry x="110" y="140" width="120" height="60" as="geometry" />
          </mxCell>
        </object>
        <mxCell id="7gZpI3A7Bq8tWj9i9B51-2" value="" style="endArrow=classic;html=1;rounded=0;exitX=1;exitY=0.5;exitDx=0;exitDy=0;fillColor=#bac8d3;strokeColor=#23445d;entryX=0;entryY=0.5;entryDx=0;entryDy=0;" edge="1" parent="1" source="7gZpI3A7Bq8tWj9i9B51-1">
          <mxGeometry width="50" height="50" relative="1" as="geometry">
            <mxPoint x="250" y="170" as="sourcePoint" />
            <mxPoint x="340" y="170" as="targetPoint" />
          </mxGeometry>
        </mxCell>
        <mxCell id="7gZpI3A7Bq8tWj9i9B51-3" value="next" style="edgeLabel;html=1;align=center;verticalAlign=middle;resizable=0;points=[];" vertex="1" connectable="0" parent="7gZpI3A7Bq8tWj9i9B51-2">
          <mxGeometry x="-0.0118" y="-1" relative="1" as="geometry">
            <mxPoint y="-1" as="offset" />
          </mxGeometry>
        </mxCell>
        <mxCell id="7gZpI3A7Bq8tWj9i9B51-4" value="" style="endArrow=classic;html=1;rounded=0;exitX=0.5;exitY=1;exitDx=0;exitDy=0;fillColor=#bac8d3;strokeColor=#23445d;" edge="1" parent="1" source="7gZpI3A7Bq8tWj9i9B51-1">
          <mxGeometry width="50" height="50" relative="1" as="geometry">
            <mxPoint x="230" y="260" as="sourcePoint" />
            <mxPoint x="330" y="230" as="targetPoint" />
            <Array as="points">
              <mxPoint x="170" y="230" />
            </Array>
          </mxGeometry>
        </mxCell>
        <mxCell id="7gZpI3A7Bq8tWj9i9B51-5" value="fail" style="edgeLabel;html=1;align=center;verticalAlign=middle;resizable=0;points=[];" vertex="1" connectable="0" parent="7gZpI3A7Bq8tWj9i9B51-4">
          <mxGeometry x="-0.0118" y="-1" relative="1" as="geometry">
            <mxPoint y="-1" as="offset" />
          </mxGeometry>
        </mxCell>
        <object label="&lt;div&gt;&lt;b&gt;Condition&lt;/b&gt;&lt;/div&gt;&lt;div&gt;&lt;font style=&quot;font-size: 10px;&quot;&gt;%expression%&lt;/font&gt;&lt;/div&gt;" dcafstype="conditionblock" placeholders="1" expression="??" id="7gZpI3A7Bq8tWj9i9B51-13">
          <mxCell style="rounded=0;whiteSpace=wrap;html=1;fillColor=#fff2cc;strokeColor=#d6b656;sketch=1;curveFitting=1;jiggle=2;" vertex="1" parent="1">
            <mxGeometry x="450" y="140" width="120" height="60" as="geometry" />
          </mxCell>
        </object>
        <mxCell id="7gZpI3A7Bq8tWj9i9B51-14" value="" style="endArrow=classic;html=1;rounded=0;exitX=1;exitY=0.5;exitDx=0;exitDy=0;fillColor=#bac8d3;strokeColor=#23445d;entryX=0;entryY=0.5;entryDx=0;entryDy=0;dashed=1;dashPattern=8 8;" edge="1" parent="1" source="7gZpI3A7Bq8tWj9i9B51-13">
          <mxGeometry width="50" height="50" relative="1" as="geometry">
            <mxPoint x="590" y="170" as="sourcePoint" />
            <mxPoint x="680" y="170" as="targetPoint" />
          </mxGeometry>
        </mxCell>
        <mxCell id="7gZpI3A7Bq8tWj9i9B51-15" value="next" style="edgeLabel;html=1;align=center;verticalAlign=middle;resizable=0;points=[];" vertex="1" connectable="0" parent="7gZpI3A7Bq8tWj9i9B51-14">
          <mxGeometry x="-0.0118" y="-1" relative="1" as="geometry">
            <mxPoint y="-1" as="offset" />
          </mxGeometry>
        </mxCell>
        <mxCell id="7gZpI3A7Bq8tWj9i9B51-16" value="" style="endArrow=classic;html=1;rounded=0;exitX=0.5;exitY=1;exitDx=0;exitDy=0;fillColor=#bac8d3;strokeColor=#23445d;dashed=1;" edge="1" parent="1" source="7gZpI3A7Bq8tWj9i9B51-13">
          <mxGeometry width="50" height="50" relative="1" as="geometry">
            <mxPoint x="570" y="260" as="sourcePoint" />
            <mxPoint x="670" y="230" as="targetPoint" />
            <Array as="points">
              <mxPoint x="510" y="230" />
            </Array>
          </mxGeometry>
        </mxCell>
        <mxCell id="7gZpI3A7Bq8tWj9i9B51-17" value="fail" style="edgeLabel;html=1;align=center;verticalAlign=middle;resizable=0;points=[];" vertex="1" connectable="0" parent="7gZpI3A7Bq8tWj9i9B51-16">
          <mxGeometry x="-0.0118" y="-1" relative="1" as="geometry">
            <mxPoint y="-1" as="offset" />
          </mxGeometry>
        </mxCell>
        <mxCell id="7gZpI3A7Bq8tWj9i9B51-21" value="fail" style="edgeStyle=orthogonalEdgeStyle;rounded=0;orthogonalLoop=1;jettySize=auto;html=1;exitX=0.5;exitY=1;exitDx=0;exitDy=0;" edge="1" parent="1" source="7gZpI3A7Bq8tWj9i9B51-18">
          <mxGeometry relative="1" as="geometry">
            <mxPoint x="170" y="420" as="targetPoint" />
          </mxGeometry>
        </mxCell>
        <mxCell id="7gZpI3A7Bq8tWj9i9B51-18" value="??" style="rhombus;whiteSpace=wrap;html=1;" vertex="1" parent="1">
          <mxGeometry x="130" y="280" width="80" height="80" as="geometry" />
        </mxCell>
        <mxCell id="7gZpI3A7Bq8tWj9i9B51-19" value="" style="endArrow=classic;html=1;rounded=0;exitX=1;exitY=0.5;exitDx=0;exitDy=0;fillColor=#bac8d3;strokeColor=#23445d;" edge="1" parent="1" source="7gZpI3A7Bq8tWj9i9B51-18">
          <mxGeometry width="50" height="50" relative="1" as="geometry">
            <mxPoint x="240" y="190" as="sourcePoint" />
            <mxPoint x="280" y="320" as="targetPoint" />
          </mxGeometry>
        </mxCell>
        <mxCell id="7gZpI3A7Bq8tWj9i9B51-20" value="next" style="edgeLabel;html=1;align=center;verticalAlign=middle;resizable=0;points=[];" vertex="1" connectable="0" parent="7gZpI3A7Bq8tWj9i9B51-19">
          <mxGeometry x="-0.0118" y="-1" relative="1" as="geometry">
            <mxPoint y="-1" as="offset" />
          </mxGeometry>
        </mxCell>
        <mxCell id="n3wZ42ac04lduegnSHcw-1" value="But needs properties instead" style="text;html=1;align=left;verticalAlign=middle;whiteSpace=wrap;rounded=0;fontStyle=1;fontSize=14;" vertex="1" parent="1">
          <mxGeometry x="80" y="670" width="280" height="30" as="geometry" />
        </mxCell>
        <mxCell id="n3wZ42ac04lduegnSHcw-2" value="fail" style="edgeStyle=orthogonalEdgeStyle;rounded=0;orthogonalLoop=1;jettySize=auto;html=1;exitX=0.5;exitY=1;exitDx=0;exitDy=0;endArrow=open;endFill=0;strokeWidth=4;fillColor=#f8cecc;strokeColor=#b85450;" edge="1" parent="1" source="n3wZ42ac04lduegnSHcw-3">
          <mxGeometry relative="1" as="geometry">
            <mxPoint x="490" y="420" as="targetPoint" />
          </mxGeometry>
        </mxCell>
        <mxCell id="n3wZ42ac04lduegnSHcw-3" value="Gues?" style="rhombus;whiteSpace=wrap;html=1;fillColor=#e1d5e7;strokeColor=#9673a6;rounded=0;shadow=1;comic=1;" vertex="1" parent="1">
          <mxGeometry x="450" y="280" width="80" height="80" as="geometry" />
        </mxCell>
        <mxCell id="n3wZ42ac04lduegnSHcw-4" value="" style="endArrow=classic;html=1;rounded=0;exitX=1;exitY=0.5;exitDx=0;exitDy=0;fillColor=#bac8d3;strokeColor=#23445d;strokeWidth=3;" edge="1" parent="1" source="n3wZ42ac04lduegnSHcw-3">
          <mxGeometry width="50" height="50" relative="1" as="geometry">
            <mxPoint x="560" y="190" as="sourcePoint" />
            <mxPoint x="600" y="320" as="targetPoint" />
          </mxGeometry>
        </mxCell>
        <mxCell id="n3wZ42ac04lduegnSHcw-5" value="next" style="edgeLabel;html=1;align=center;verticalAlign=middle;resizable=0;points=[];" vertex="1" connectable="0" parent="n3wZ42ac04lduegnSHcw-4">
          <mxGeometry x="-0.0118" y="-1" relative="1" as="geometry">
            <mxPoint y="-1" as="offset" />
          </mxGeometry>
        </mxCell>
        <mxCell id="YFzk0yVMr0FTQoHT1qnK-1" value="" style="endArrow=none;html=1;rounded=0;strokeWidth=4;" edge="1" parent="1">
          <mxGeometry width="50" height="50" relative="1" as="geometry">
            <mxPoint x="360" y="164.66" as="sourcePoint" />
            <mxPoint x="400" y="164.66" as="targetPoint" />
          </mxGeometry>
        </mxCell>
        <mxCell id="YFzk0yVMr0FTQoHT1qnK-2" value="" style="endArrow=none;html=1;rounded=0;strokeWidth=4;" edge="1" parent="1">
          <mxGeometry width="50" height="50" relative="1" as="geometry">
            <mxPoint x="360" y="174.66" as="sourcePoint" />
            <mxPoint x="400" y="174.66" as="targetPoint" />
          </mxGeometry>
        </mxCell>
        <mxCell id="YFzk0yVMr0FTQoHT1qnK-3" value="" style="endArrow=none;html=1;rounded=0;strokeWidth=4;" edge="1" parent="1">
          <mxGeometry width="50" height="50" relative="1" as="geometry">
            <mxPoint x="360" y="314.65999999999997" as="sourcePoint" />
            <mxPoint x="400" y="314.65999999999997" as="targetPoint" />
          </mxGeometry>
        </mxCell>
        <mxCell id="YFzk0yVMr0FTQoHT1qnK-4" value="" style="endArrow=none;html=1;rounded=0;strokeWidth=4;" edge="1" parent="1">
          <mxGeometry width="50" height="50" relative="1" as="geometry">
            <mxPoint x="360" y="324.65999999999997" as="sourcePoint" />
            <mxPoint x="400" y="324.65999999999997" as="targetPoint" />
          </mxGeometry>
        </mxCell>
        <mxCell id="YFzk0yVMr0FTQoHT1qnK-5" value="" style="endArrow=none;html=1;rounded=0;strokeWidth=4;" edge="1" parent="1">
          <mxGeometry width="50" height="50" relative="1" as="geometry">
            <mxPoint x="470" y="260" as="sourcePoint" />
            <mxPoint x="470" y="230" as="targetPoint" />
          </mxGeometry>
        </mxCell>
        <mxCell id="YFzk0yVMr0FTQoHT1qnK-6" value="" style="endArrow=none;html=1;rounded=0;strokeWidth=4;" edge="1" parent="1">
          <mxGeometry width="50" height="50" relative="1" as="geometry">
            <mxPoint x="480" y="260" as="sourcePoint" />
            <mxPoint x="480" y="230" as="targetPoint" />
          </mxGeometry>
        </mxCell>
        <mxCell id="YFzk0yVMr0FTQoHT1qnK-7" value="" style="endArrow=none;html=1;rounded=0;strokeWidth=4;" edge="1" parent="1">
          <mxGeometry width="50" height="50" relative="1" as="geometry">
            <mxPoint x="164.76" y="270" as="sourcePoint" />
            <mxPoint x="164.76" y="240" as="targetPoint" />
          </mxGeometry>
        </mxCell>
        <mxCell id="YFzk0yVMr0FTQoHT1qnK-8" value="" style="endArrow=none;html=1;rounded=0;strokeWidth=4;" edge="1" parent="1">
          <mxGeometry width="50" height="50" relative="1" as="geometry">
            <mxPoint x="174.76" y="270" as="sourcePoint" />
            <mxPoint x="174.76" y="240" as="targetPoint" />
          </mxGeometry>
        </mxCell>
        <mxCell id="gRXlP1XVCFNVwmxX_0a_-1" value="fail" style="edgeStyle=orthogonalEdgeStyle;rounded=0;orthogonalLoop=1;jettySize=auto;html=1;exitX=0.5;exitY=1;exitDx=0;exitDy=0;endArrow=open;endFill=0;strokeWidth=4;fillColor=#f8cecc;strokeColor=#b85450;" edge="1" parent="1" source="gRXlP1XVCFNVwmxX_0a_-2">
          <mxGeometry relative="1" as="geometry">
            <mxPoint x="160" y="625" as="targetPoint" />
          </mxGeometry>
        </mxCell>
        <mxCell id="gRXlP1XVCFNVwmxX_0a_-2" value="Gues?" style="rhombus;whiteSpace=wrap;html=1;fillColor=#e1d5e7;strokeColor=#9673a6;rounded=0;shadow=1;comic=1;" vertex="1" parent="1">
          <mxGeometry x="120" y="485" width="80" height="80" as="geometry" />
        </mxCell>
        <mxCell id="gRXlP1XVCFNVwmxX_0a_-3" value="" style="endArrow=none;html=1;rounded=0;exitX=1;exitY=0.5;exitDx=0;exitDy=0;fillColor=#bac8d3;strokeColor=#23445d;strokeWidth=3;startFill=0;" edge="1" parent="1" source="gRXlP1XVCFNVwmxX_0a_-2">
          <mxGeometry width="50" height="50" relative="1" as="geometry">
            <mxPoint x="230" y="395" as="sourcePoint" />
            <mxPoint x="270" y="525" as="targetPoint" />
          </mxGeometry>
        </mxCell>
        <mxCell id="gRXlP1XVCFNVwmxX_0a_-4" value="next" style="edgeLabel;html=1;align=center;verticalAlign=middle;resizable=0;points=[];" vertex="1" connectable="0" parent="gRXlP1XVCFNVwmxX_0a_-3">
          <mxGeometry x="-0.0118" y="-1" relative="1" as="geometry">
            <mxPoint y="-1" as="offset" />
          </mxGeometry>
        </mxCell>
        <mxCell id="gRXlP1XVCFNVwmxX_0a_-5" value="fail" style="edgeStyle=orthogonalEdgeStyle;rounded=0;orthogonalLoop=1;jettySize=auto;html=1;exitX=0.5;exitY=1;exitDx=0;exitDy=0;endArrow=open;endFill=0;strokeWidth=4;fillColor=#f8cecc;strokeColor=#b85450;" edge="1" parent="1" source="gRXlP1XVCFNVwmxX_0a_-6">
          <mxGeometry relative="1" as="geometry">
            <mxPoint x="310" y="625" as="targetPoint" />
          </mxGeometry>
        </mxCell>
        <mxCell id="gRXlP1XVCFNVwmxX_0a_-6" value="Gues?" style="rhombus;whiteSpace=wrap;html=1;fillColor=#e1d5e7;strokeColor=#9673a6;rounded=0;shadow=1;comic=1;" vertex="1" parent="1">
          <mxGeometry x="270" y="485" width="80" height="80" as="geometry" />
        </mxCell>
        <mxCell id="gRXlP1XVCFNVwmxX_0a_-7" value="" style="endArrow=classic;html=1;rounded=0;exitX=1;exitY=0.5;exitDx=0;exitDy=0;fillColor=#bac8d3;strokeColor=#23445d;strokeWidth=3;" edge="1" parent="1" source="gRXlP1XVCFNVwmxX_0a_-6">
          <mxGeometry width="50" height="50" relative="1" as="geometry">
            <mxPoint x="380" y="395" as="sourcePoint" />
            <mxPoint x="420" y="525" as="targetPoint" />
          </mxGeometry>
        </mxCell>
        <mxCell id="gRXlP1XVCFNVwmxX_0a_-8" value="next" style="edgeLabel;html=1;align=center;verticalAlign=middle;resizable=0;points=[];" vertex="1" connectable="0" parent="gRXlP1XVCFNVwmxX_0a_-7">
          <mxGeometry x="-0.0118" y="-1" relative="1" as="geometry">
            <mxPoint y="-1" as="offset" />
          </mxGeometry>
        </mxCell>
        <mxCell id="gRXlP1XVCFNVwmxX_0a_-9" value="Well, except the presence of arrowheads" style="text;html=1;align=left;verticalAlign=middle;whiteSpace=wrap;rounded=0;fontStyle=1;fontSize=14;" vertex="1" parent="1">
          <mxGeometry x="120" y="450" width="280" height="30" as="geometry" />
        </mxCell>
        <mxCell id="GtZf1XpY-I1WrBtMEelF-1" value="" style="endArrow=none;html=1;rounded=0;fillColor=#f8cecc;strokeColor=#b85450;" edge="1" parent="1">
          <mxGeometry width="50" height="50" relative="1" as="geometry">
            <mxPoint x="180" y="570" as="sourcePoint" />
            <mxPoint x="260" y="490" as="targetPoint" />
          </mxGeometry>
        </mxCell>
        <mxCell id="GtZf1XpY-I1WrBtMEelF-2" value="" style="shape=image;verticalLabelPosition=bottom;labelBackgroundColor=default;verticalAlign=top;aspect=fixed;imageAspect=0;image=data:image/png,iVBORw0KGgoAAAANSUhEUgAAAzQAAALaCAIAAABoKYFmAAAgAElEQVR4AezdeXMTV6L3cf8zr+O+jPunyoRyCnCIKySZeCo8pFw3VGaYmVzC9RIgLIHEhO0SyEbIDWQzISMgTphkEmIHhsjYYMCAWWyDjQ3IC8aLkGRLavd5Ep/h3HNbbbWw5XZL+qqmMq1ezvLptvTj9KICIUQ8Hu+ffMXjceHia3R0NBgMjo6OJtdpTr6S5081xzCMqRZZ5j9SybO3shCCNqtdg7OikBMcGwqEY0NRcGxYKDg2LCB8biiQHDg2CmRnkvOZaZoTky9jdl7Dw8N37twZHh62LT4x+bJdZDszFovZzk+e+Uglz97KhmHQZrV3cFYUcoJjQ4FwbCgKjg0LBceGBYTPDQXi5WNDJivTNFWUlBOWQPmvcKaPn8kdHI/Hx8fHx8bGotFoJNOvgYGBW7duDQwMTFVwePI11dLk+aFQKHmm7ZxHKnn2Vo5EIrRZ7SCcFYWc4NhQIBwbioJjw0LBsWEB4XNDgXj22IhGo2NjY+Pj4/F43DAMPaJZw5l8L/8bj8d7e3vv3r37YPI1PDx87969/v7+voy+urq6rl+/3tXVlaLU3slXihUsi4LBoGXOVG8fqeTZW7mvr482q32Es6KQExwbCoRjQ1FwbFgoODYsIHxuKBDPHhv9/f0DAwNDQ0OhUCgajcqxMD2GqekCNWWapmEYkUikp6fn5s2b586dq6ur+/rrr/28EEAAAQQQQAABBGYs8PXXX9fV1V24cGFwcDAcDk+Vz/73tObExEQ8Hn/w4EF7e/v333//z3/+886dO+Pj45bTorxFAAEEEEAAAQQQmIbA+Pj4nTt3Tp069cMPP3R2dj548CAej09MTMiRMlXgv8KZTGaRSKSzs/Prr7/u7OxUazCBAAIIIIAAAgggkEEBFbcikUjyJWj/CmeGYYyNjd2/f19GuQxWT1EIIIAAAggggAACFoHOzs4ffvjh/v37Y2NjiURCvz/gt3BmmqY8oXnhwoVTp05ZNuYtAggggAACCCCAQMYFTp06deHChQcPHsRisYmJCVX+b+FsYmJifHx8eHi4rq7uzp07ahkTCCCAAAIIIIAAArMkcOfOnbq6uuHh4bGxMf0xwv8KZ2NjY/fu3fv666+5A2CWdgDFIoAAAggggAACusD4+PjXX3997969aDRqDWeGYUSj0f7+fr/fr2/DNAIIIIAAAggggMDsCfj9/v7+/kgkkkgkVC2/jZzJx5v19fURzpQLEwgggAACCCCAwGwL+P3+vr6+cDhMOJttaspHAAEEEEAAAQScBQhnzkasgQACCCCAAAIIuCZAOHONmooQQAABBBBAAAFnAcKZsxFrIIAAAggggAACrgkQzlyjpiIEEEAAAQQQQMBZwD6cmaaZSCTC4TB3azoTsgYCCCCAAAIIIJA5AT2cyZ8/N02zgHCWOWFKQgABBBBAAAEEHkHAPpzxnLNHIGRVBBBAAAEEEEAgcwJ6OFOl8hBaRcEEAggggAACCCDgqgDhzFVuKkMAAQQQQAABBFILEM5S+7AUAQQQQAABBBBwVYBw5io3lSGAAAIIIIAAAqkFCGepfViKAAIIIIAAAgi4KkA4c5WbyhBAAAEEEEAAgdQChLPUPixFAAEEEEAAAQRcFSCcucpNZQgggAACCCCAQGoBwllqH5YigAACCCCAAAKuChDOXOWmMgQQQAABBBBAILUA4Sy1D0sRQAABBBBAAAFXBQhnrnJTGQIIIIAAAgggkFqAcJbah6UIIIAAAggggICrAvbhzDCMWCwWCoWCwaDf73e1RVSGAAIIIIAAAgjksYDf7w8Gg6FQKBaLGQ9fBUIIwzAikUhfXx/hLI8PD7qOAAIIIIAAAm4L2I+cEc7c3g/UhwACCCCAAAIITAoQzjgQEEAAAQQQQAABDwkQzjy0M2gKAggggAACCCBAOOMYQAABBBBAAAEEPCRAOPPQzqApCCCAAAIIIIAA4YxjAAEEEEAAAQQQ8JAA4cxDO4OmIIAAAggggAAChDOOAQQQQAABBBBAwEMChDMP7QyaggACCCCAAAIIEM44BhBAAAEEEEAAAQ8JEM48tDNoCgIIIIAAAgggQDjjGEAAAQQQQAABBDwkYB/OTNNMJBLhcJgfPvfQvqIpCCCAAAIIIJAHAno4Mx++CghnebDr6SICCCCAAAIIeFHAPpwJIQzDiEQijJx5cafRJgQQQAABBBDIXQE9nKleFhDOlAUTCCCAAAIIIICAmwKEMze1qQsBBBBAAAEEEHAQIJw5ALEYAQQQQAABBBBwU4Bw5qY2dSGAAAIIIIAAAg4ChDMHIBYjgAACCCCAAAJuChDO3NSmLgQQQAABBBBAwEGAcOYAxGIEEEAAAQQQQMBNgSwOZ4ODg6WlpdXV1cqrpqbGp70KCwuXLFny+uuvX758eWJiQq3GBAIIIIDAbAgEAoHi4uK2trbUhae5WupCWIpADgvkWjibP3/+a6+9tn3ytXXr1rKysnnz5vl8vlWrVt2/fz+HdyRdQwCBFAKBQED7h9u/Jh1jRDQaXblyZfKGPp+vpqYmRXVCCPmvR7Wa3oDS0tLBwcHkzaurqy1NmqoB8h+lbW1txcXFevMCgUBysbZz9JL19sj5qtnV1dX6UllU8kzVWUvq0lu4cuXKaDQqS0hzNcu/ty0tSb1UCGHpi62DPjMQCFiq0JcyjYCbArkWziwfbUKIcDj83//934WFhatWrQqHw27iUhcCCHhWoHry9ajNk9/3es6YqgSVV+QKH330kQpkyeFGhrkXX3zRcjYgufC2trbS0lI5NCWjjwpkMv+pt8nbqjmyF+q0g94eS6CxpCgVOi2ftJaWyIosM6urq23dUqxWU1OjpyW9nUKImpoa1QXVNb1qGVtV0LSso7+trq6WK+vV6SswjYDLArkfzoQQpml+9NFHhYWFtbW1LvtSHQIIeFBAjziP1LyamhpLLplqc0s401eTiywpKhAIrFy58vjx46nzQfXkS5ZmiTWWXKXXaJm2dF9vj6WQ5F7IuFZaWqqHHkuKktVVT75U1YODg7+mz+QznilWsxRrabZlQ1WRym2Wvugr6NOqYYyc6SxMz61AXoQzIUQwGHzuuefUv9sCgcDChQt37dplGMbc7gBqRwAB9wWqJ1+qXvktrsZOamtrbROYDEMqlKjvfv2UpYpcybFGVWcJGXJ+dXV1TU2NLFMVojaRE5YNHcOZ3rDa2lqVqCzlqHCmr+/z+eS4VPXkS7VEjldZZqq3Kt8oHLWhPifN1aYdzmSleo2qGSkmVKtSrMMiBNwRsA9npmkmEolwOOzlHz6XHyj6sHaKf9Saprl58+bnnntuYGBACEE4c+fwohYEPChgiSbyK1z9y00mHttwZjkxJzd88cUX1aeQfmJxqnAmt1KbSB+9STU1NaoxFr3qyZeaaQlnlg31z0NZqX6pnN4XfVquqQKoHIVSg3lqqZ5j9J6q+cnd1OekuZoezlTVsvuWt8pEn0hnHX191Sp9JtMIzImAHs7Mh6+C3Atn8iPG9gN3TtypFAEE5krAEmKSv5L1WKMaqQcvOVN+91uClAo6emRRl2r5fD7bTyG9SXpQU7WrEvRBNRnO1A0Besmy9uSV9dSlLrTSu5AcaPQIqNqmz9SvS9MxLWKyOplK01zNcsl/cjtV3/VFCi25L2qR7YTeKtsVmImAawL24UwIYRhGJBLJmZEzwplrhxQVIeBlgeTUouKUaraeNuRMuZVluEt+91tmqi94SzhThcut9CBlyRCWt2pDPcDJmXpCEkLItzJ+TdUFudTSNn3l5Nr1OfLCuOjka+XKlbI0vWGq+7KF+nlSdT5UnrtQo3HyrYpZ+mr6yFmKz3DZQr1AWbvecsWYYsLS+BRrsgiB2RbQw5mqqyAnw9m+ffsWL17c0dGh+skEAgjkm0DyF3D15Et30MOKnG+5T1DOtP3uV+VbApBevtxQpTo9waiMYokatnVZwpkeelQzVL16e/Q4pTooB59sK1LrV0++5CZy5uDg4MqVK/W+WFouV7Y82CK5ebarWcKZEGKy/v99tqXaSu+dmpncF30oTs/HcpMUrVJlMoGAOwL5Es5isVhVVVVZWdnIyIg7stSCAAIeFKiefOkNS55jCWeW03Nq2+Tvfjm6I1OObVxQ2+rDdfq0XCE5danziaoENVRmOXcpH7SRnDP09lRPvvSiVAyy7ZQEkWWq6qaaOVU407uQ3DzVGH011Sq1VMVENUdO2DbbdqZlQ/1tilbpqzGNgAsC+RLO5Ifdrl27TNN0gZUqEEDAgwIyoKh4IVtomwDUsIrcRI0M6Z2S3/361U5yjlxZD0P6VmoMKcVqejmqkXpFcmZyhlPxInmRnCNPRCbHQTXHNtAoBD142c5UDbB0WY+t+ghf6tWSd0315Ct5K9kYy5617UvytmpOisardZhAwB2BvAhn4XB41apVJSUl7e3t7rBSCwIIeFDAMiQmW6hChnwrx8lUOLM9oSnXlN/9+i2Q+p0EslgZhtra2vSHLOqZw7ZJMsqoJJSc1WQDLAlMj1/yDKAqQTZGNdWypmVosHryJatQ/5WX81sCYvJMPd+0tbVduHBBlqDLWMJZitV0KMs1Z21tbW+//bYsXPpY2qZCsNwFqiMpJvTGp1iNRQi4IJD74ayrq+uPf/xjUVHR119/7QIoVSCAgGcFpjopprKLfLiXCkwyxKjrwPQJ9UwyeQG7XKTCkLq5UiYDvXyfz6dixFSpwnZzy7CQOq2pt8qyjrofs7i4WCYPlVT0JqkkKnec6rU+XigDnNpcrikv4dJn6vlGlePz+XSZ5HCmfoTKspp+iZilEL1w9Ug2y4EnefXmWVawvNUbb1nEWwRcFsi1cKb/tmZ1dfUf/vCHwsLCJ598sr6+Xj+hyXPOXD7OqA6BLBJI80v6Ub/751ZAprH0k8r0Wpsm3fQKZysE8kcg18KZ/o/IoqKi//iP/zh06FDyT2oSzvLnEKenCDyqgLoAK/WGhLNkn6nGJpPXZA4CCKQQyOJwlqJXLEIAAQTSFBgcHKyuro5Go3J9y9VRKQohnFlw3Bmcs1TKWwRyUoBwlpO7lU4hgEC6AjJjqUF3y2VPKUohnCkceUWauuFAzWcCAQSmJ0A4m54bWyGAAAIIIIAAArMiQDibFVYKRQABBBBAAAEEpidAOJueG1shgAACCCCAAAKzImAfzkzTTCQS4XDYyz98PiseFIoAAggggAACCMypgB7OzIevAsLZnO4UKkcAAQQQQACB/BWwD2dCCMMwIpEII2f5e2jkZc/jgy1jnUejN77ifwgggAACnhIY6zwaH2zJk68mPZypLhcQzpQFE3kiMNy8Jfjpv919v4D/IYAAAgh4ViD46b8NN2/J+S8mwlnO72I66CAwMT5y97DPs59ENAwBBBBAwCpw2DcxPuLw4Z7Niwln2bz3aHsmBFQyC+793cipP0fbP/PUSD6NQQABBBD4TaD9s5FTfw7u/d2/gtphn+M3wMUbfXXNneNxw7LmeNyoa+68eKPPMt87bwln3tkXtGQOBIabt8i/84HD/26M3pyDFlAlAggggEDaAsbozYHD/y4/t1Of37zWfa/+fNexhvbWzv7hB2OqhuEHY62d/cca2uvPd13rvqfme2qCcOap3UFj3BaQ15kF9/6OZOY2/WzW5/M5/5N6NuunbAQQmEUBY/SmHD8LfvpvKar5NtB2+MTVQ3Wth+pa23oGY5PjZ7G40dYzKGcePnH120BbihLmcBHhbA7xqXqOBeKDLfKfXyOn/jzHTaH6jAoQzjLKSWEIeE5g5NSf5ad3ivs3B4YjDa09Mod939hx6Wa/EOLSzf7vGzvkzIbWnoHhiOf6Ntkgwpk39wutckNgrPOo/POOtn/mRn3U4ZYA4cwtaepBYG4Eou2fyU/vsc6jKVpwe2D01MVu/89XDtW1/tB0ozM4/EPTjUN1rf6fr5y62H17YDTFtnO7iHA2t/7UPpcC0Rtf/Suc3fhqLtthV/fAwMCLL764ZMmSjo4Ou+XO82ZegnMdXl2DcObVPUO7EMiMQPqf3oMjkW9+uf5V/W8nN+X/vqpv/eaX64MjHh0zk0CEs8wcKJSSjQLp/3nPXu+i0ejKyVc0GtVrCQQCvslXTU2NPj/96ZmXMFVdg4ODpaWlK1eutLRZX7+mpka23+fzFRcXt7Vl/sKO6urq0tLSwcFBvV45TThLNmEOArkkkP6ndyxuBAdDP5/vUuHs5/NdwcGQvATNsya5Fs7k10Z1dXWmxE3TrK+v//3vf+/z+Xbs2JGpYinHCwLp/3nPXmunCmdy3Ku0tPTmTZt7SHt7e1955ZW//e1vKRqWuoQUGzouIpw5ErECAgjMqkD6n96Es1ndEekWnvFwVl9fP3/+/FdeeeXYsWOpvwvTbSLreUYg/T/v2WvyVOEsdY1tbW3FxcXTHlRLXbjj0nTCmSqkpqaGkTOlwQQCCGREIP1Pb05rZgR8poVkNpzFYrGqqqoXXnhhaGgonZa1tLS89NJLp0+fTmdl1plzgfT/vGevqYSzadtyWnPadGyIQLYLpPnpzQ0BXtnRmQ1nj/rFKa+zCQQCXuGgHSkFbP+8JyYm6uvrly1bVlhYOG/evJdffrmnp0cVY5pmS0vLihUr5s2bV1hY+Ic//OHIkSOJREKuIA+/rVu3dnV1vfzyy/PmzSsqKtqzZ4/l2qyurq7Vq1cvWLDA5/M9/vjjRUVF+vVbKa7WkgekupZLn9CvvkpRgmznDHshu7l58+aenp6qqqqiyVdyN2VdU42cpW6D3Db1vrCEs6tXr5ZMvi5fvsw1ZxKQ/yKQqwK2n96WzubgozQMw4jFYqFQKBgM+v1+S4e9/JZw5uW947W2Jf95JxKJnTt3FhYW6rlHv4Tx5MmTRUVF+lKfz7d9+3aZz+Tht2TJkuLiYn2d/fv3q75funTJstTn87kczmbYC9nNZcuWlZaW6t3cuXOnYVh/JmWqcJa6DUIIx32hh7Nbt249//zzJSUlV69eFUIQztTxxgQCOSmQ/Omd3M1sfwhtMBgMhUKxWMx4+CoQQhiGEYlE+vr6vBzOJiYmfvrppz/84Q+FhYVFRUVbt25ta2srLS3Vv02FEOFweO/evU8//bTP55s3b96f/vSnu3fvyh2pj2EsWLDgnXfeUYMc1dXV+hePz+eTQ2J3797dsGGDHPZ44oknPvjgg1gsJq8B0tcvLS39+uuvCwsLky8MOnLkyPz585uamtTI3PDw8JdffllSUuLz+UpKSvbu3auaIds5Pj5+5MgReV9CUVHRxo0b+/t/e56eECIajVZVVc3kmQuynDz8b/Kf98mTJ+fPn19aWnrmzJnE5OvSpUtffvmlxAkGg88991xxcfGPP/6YSCQmJibOnj3768oLFy5sbW0VQsjU4vP5SktLz507NzEx0dLSUlxc/Ne//jUS+e227XA4vGLFigULFnz77bexWEwIMTAwsGLFCj2cqR0xVawRQqR5zZltCTPvhd7Ns2fPTkxM3Lhx4/nnn3/mmWfUX1bqXji2QQiRel8IIVQ46+vrW7Zs2ZIlS65fvy7rJZwpfyYQyEmB5E/v5G7y803JJm7MUf+wXr58+bFjx44ePVpWVrZ06dLi4mI9nLW3t5eWlhYVFVVXV9fX1x89enTt2rXy2VHyO6a0tPTzzz+vr6/ftGlTYWGh+tf/1atXf/zxx2WTrx9//PHEiRP37t1rb28vKSmRmxw/fnzDhg2rVq36NWONjo7+8ssvmzdv9vl8e/fuPXHiRGNjY29v7wsvvGD53h0fH6+oqFixYkU4HJbhbMWKFRs3bly6dOnhw4ePHTv2yiuvFBYWlpeXq3yWSCS2b9+uurB3794nn3xy2bJlfX2//Wgr4WzaR5vlz/vXUZ/169cXFxfL0ZfkYo8fP+7z+Y4cOaIvqqurUxFcHlFq/EbunZUrV6pzjs3NzfPnz9cH0lRAV7tbFW4breTSmYSzmfdCdvP555/v7e3VW1tYWNjY2KjmyAnbXji2wXFfqHDW2tpaVlamJzNGziy7gLcI5J6A5dN7qg7yw+dTyczi/LNnzxYVFakzSvI8yPbt230+nwpno6Ojf/zjH/UvS71BQ0ND33zzzfj4uJyZSCQ2btz41FNP3bp1S85J/uLct2/fokWLrl27psoJhULqVI7lmjPTNHft2mW5VU3/WpXlywarZkxMTHz44YeFhYV1dXWyltra2sWLF1+6dElVevXq1eLi4t27d6s5TExDwPLnHQqFXnrpJUuY1ou1zRm3bt166qmn5CEnU4tegtzFKpzJUKJflZh8jKkabauTS/WjSK2fPGFbgu3MR+pFcjeFEPKxanrXZHtsq7OdqbfBcV/IcLZ48eIXXnhh0aJFly9f1rvPyJmuwTQCuSdg+fTOvQ5m63PODMPYtGnTc889FwwG9b3S2dlZUlKiwtkvv/xSWFhoGerQ17dMW74zkr849+3b9/jjj58/f96yoXxrCWdCiNbW1oULF+pnNvfv319SUtLZ2amGVdRbVebdu3efeeaZzZs3m6YpT4Rt2bLFNE21gryNVJ0sU/OZeCQBy5/3yMhIWVmZHq0spVkOD7lURoqtW7eq05p6CZZw9tVXX6nz43Lz5GNMVWpbnVw6S+EszV7MajiTbXDcF2rkzO/3FxUVVVZWhsNhRUc4UxRMIJBjAssnX5ZP7xzroxAiW8OZ/OyuqqqSF+6oHSO/NlQ427dv3+LFi1P8AE4ikTh37twHH3ywatWqJUuWyCvB1b/+k7845R1hTz755MGDB0dHrT/LlRzOZLRS39by7aZNm+Rgmyz/pZdeCoVCqgsqtMmt5He/fjWbmlbjMfq2TKcvYPnzHhsbW7Vq1bPPPnvnzh3bQmpra5NPa/7444+FhYW1tbXphDM5vCRXllXII0odIXq9juFst9PQqW0JM+9FcjiTg8SPP/64Pr4r+zK9NjjuCxXO7t27d+jQoXnz5umD6IQz/UBiGoGcEZDJbPny5ZZP75zpoOpItoYzSwhT/bHMV5cMqxX0CXk5mnwgQnV19cGDB+VFYynCmRCiq6trxYoV8jkLW7ZsuX//viozOZwJIY4cOaIuGL906dLChQvV+crk8CeL0ufLMZLNmzefSHo1Njaqk6GqDUykL5D8571//36fz7d8+fL29vaJydfly5fVDQFyXLakpOT06dPyhoCmpqYlk6+urq50wpmM2suWLevp6UkkEj/++KO8c/NRw5kcWy0tLW1ra9OHVC19tw1GM++F/CtbsWLFwMCAECIWi9XW1hYVFckrKTPSBiFE6n2hwtng4KBpmgcPHnzsscd27twpb5slnFn2Am8RyAEBmcz++c9//jaE4eFfRs4IdXaHs/Xr16vrvSSHJZxt3bpVv4ZMJ5MX5j///PO3b99W8y3pSg9Jah050dPT8+abb86bN6+srEw9otayuVxTfh/La8D37dunP9J2qvLluOCqVavGxsY6OjoWL14sz/VY2sDbGQok/3mHw+FVq1apsUk5oQZiZQiwPGhj3rx5hw4dkglJHn560pK7WI1xGoaxc+dOvfw//elP+m9ryvX1FeS0KkF2eXx8fM2aNfpqagXHEmbeC9lNvXZ5l7G6kWLmbZB3tqbYF3o4U9ebFhYWHjx40DRNwtkM/zTYHAGvCejJjHDm3UdpyLMeetCRR1JTU9P8+fPVt2ltba1+Zb1+tFlinFy0e/du/ZIg+R2jf9fqJZim+cUXX+h3qCVfUSQfSrJp06YVK1bcvn27rKxs3759qhBZfvIDCOSVanJNGdSST32qQpiYtkByOLM8eKWoqKiqqkp/CK3lsagrVqxoaWlRY1eO4UyWv2PHDvng1q1bt96/f7+6ulodY46xRnX2/v3727Ztk490kQ/vkD8Bnk4JM+zF+Pj43/72txdffFHWvmDBgtWrV+tKM2+D7Kb+EJzkfWEZF5fBWmZlwpk6TphAIAcELMmMcObdcCZPF6p/KMuDTw17qHAmH6e0bNmy5KuI5PdoRUWFOjMor/5JHc5GRkbUN7EQ4vjx4/Pnz29ubpYNkFcUHT9+3PLHUFdXt2jRov379y9evFg+EEuuoL7D3n33XfWUedkLdY+naZp79uyx9NQ0zaamJnkqzVIXb9MXsA1n6W/Omp4VIJx5dtfQMAQeVSA5mRHOPB3OZIgpLCyUv0r++eefl5aWrlu37rnnnlPhTD7KcsGCBYsWLdqxY4f+nDN5gkk+Uez48ePyKbV/+ctfUoez6urqpUuXfv755ydOnHj//feLi4tXrVqlbhOTV/OUlpZ+8803+/fvV6c7h4aGXnjhhSeeeELPgr8dXtHoypUry8rKfh0Yk704fPjw0qVLLVGsr6+vrKxM9fTo0aPLly9fvHhxW1ubLISH0D7qX7tcn3A2PTfvb0U48/4+ooUIpCOQnMzknJz/9M7Wa87kTg2Hw3v27JHnVn7/+98fOXKkr68v+RcCurq65C8A+ny+BQsWrFu3Tp0AeueddxYsWFBYWFhWVtbS0mK5aEyGJ3XKSQhx6tSpsrKyefPm+Xy+p59+eu/evSqZCSFM06yvr1+yZInP5/vLX/6i384pT5jqt+mpcPZrPuvp6dm4cWNRUVFhYeGvv+p48uRJfXxOngvbs2fPE0884fP5ioqK/vrXv6qzaTyENp2/cNt1xjqP3n2/4O77BdH2z2xXYGaWChDOsnTH0WwEdIGpktlvd2u2fyY/vcc6j+qb5Mx0doezbNkN8kEDyU9lSw5/2dKj3GhnfLBF/nmPnPpzbvSIXkgBwhlHAgLZLjBVMpN3a46c+rP89I4PtmR7T23bTzizZcnwTHnpm+VBsvrIWfJP92S4BRQ3hUDw03+7+35BcO/vjNGbU6zC7OwTIJxl3z6jxQhoAqmTWWL0RnDv73776P7037SNcmrSPpyZpplIJMLhsMd/+DwrdoW8qXPhwlueB5kAACAASURBVIUXL160NJiRMwuI+2+Hm7fIf34NHP538pn7/tSIAAIIWAQck9nA4X+Xn9vDzVss2+bMWz2cmQ9fBYSzjOzgmzdvfvHFF2+//XZRUZH6PXW9ZMKZrjFX03cP++TfeXDv70ZO/Tna/ln0xlf8DwEEEEBgrgR2Vcy3VP3bnPbPRk79WY6Z/fahfdg3V98aLtRrH87k07kiEU/fremCzgyrkM+PXbBgwYcffqge2KGXSTjTNeZqemJ8ROUzmdL4LwIIIICApwUO+ybGR+bqW8OFevVwpqorIJwpCybyRGC4eYu8/szTn0eT95bSQgQQQCBvBYKf/lsOn81UX7iEM0XBBAIiPtgy1nnUMpzOWwQQQACBORcY6zyaq/dmJn/7Es6STZiDAAIIIIAAAgjMmQDhbM7oqRgBBBBAAAEEEEgWIJwlmzAHAQQQQAABBBCYMwHC2ZzRUzECCCCAAAIIIJAsQDhLNmEOAggggAACCCAwZwKEszmjp2IEEEAAAQQQQCBZgHCWbMIcBBBAAAEEEEBgzgQIZ3NGT8WeEhgaGuru7u7o6GjnhQACCCDgSYGOjo7u7u6hoSFPfX3MRmMIZ7OhSpnZJBCPx7u7u3t7e6PRqGma2dR02ooAAgjkk4BpmtFotLe3t7u7Ox6P53DXCWc5vHPpWloCefLvsLQsWAkBBBDIBgF5rsOxpRdv9NU1d47HDcua43Gjrrnz4o0+y3zvvLUPZ6ZpJhKJcDjc19fn9/u901xagkBmBYaGhnp7ezNbJqUhgAACCMy2QG9vb+rzm9e679Wf7zrW0N7a2T/8YEy1Z/jBWGtn/7GG9vrzXde676n5nprQw5n58FVAOPPUTqIxsyfQ3d0djUZnr3xKRgABBBCYDYFoNNrd3Z2i5G8DbYdPXD1U13qorrWtZzA2OX4WixttPYNy5uETV78NtKUoYQ4X2YczIYRhGJFIhJGzOdw3VO2CQEdHB9eZueBMFQgggEBmBUzT7OjoSFHmwHCkobVH5rDvGzsu3ewXQly62f99Y4ec2dDaMzAcSVHCHC7Sw5lqRgHhTFkwkdsC7e3tud1BeocAAgjkqoDjB/jtgdFTF7v9P185VNf6Q9ONzuDwD003DtW1+n++cupi9+2BUc/KEM48u2tomBsCjn/bbjSCOhBAAAEEHl0gnQ/wwZHIN79c/6r+t5Ob8n9f1bd+88v1wRGPjplJBsLZox8ObJFDAsl/2zU1NfPmzSsrKzt06FA4HE7uq+MKyZswBwEEEEAg4wLJH+DJVcTiRnAw9PP5LhXOfj7fFRwMyUvQktf3yBzCmUd2hAgEAosWLfrb3/7mlQblRzuS/7Zramp8D1+lpaXTWCE/5OglAgggMMcCyZ/PyQ0inCWbMOcRBAhnj4CVuVVt/7YnJibu3r27c+dOOYSWfLe24wqZayAlIYAAAgjYC9h+gFtW5bSmBYS3CGSBQIq/bdM0P/roo8LCwrq6OtueOK5guxUzEUAAAQQyIpDiA1yWzw0BGXGmEATcFkj9t33y5Emfz1dTUzNVsxxXmGpD5iOAAAIIzFAg9Qc4j9KYIS+bIzBnAin+toeGhl555RWfz1dbW2vbPscVbLdiJgIIIIBARgRSfIALIXLmIbTKKmueczYxMVFfX79s2bLCwsJ58+a9/PLLXV1dshtnz54tKiraunWrYfzrR7XGx8fXrFnz7LPP3rlzJxqNrpx8DQ8Pf/nllyUlJT6fr6SkZO/evfrz4gOBgM/nCwQCLS0tS5cuXbx4sXrkXVdXV1VVVVFRkc/n+/3vf//TTz9NTEwowbt3727YsGHBggU+n++JJ5744IMPYrGYXDrVIlmXZZCmv79/27ZtTzzxhM/nKyoq+s///M/r16+rWlQv7t+/v3fv3kWLFsnG1NfXqwerBgKBhQsX7tq1SzmozZkQQtj+bVdXVz+8JcAnDxiLleMKlvV5iwACCCCQcQHbD3BVS878fJPqUXaEM9M0Dx48OH/+/MrKyuPHj3/++eelpaUlJSVXr14VQiQSiS1bthQXF7e1/evHGU6ePFlUVCRHQWSsWbFixcaNG5cuXXr48OFjx4698sorhYWF5eXlKp/JwPTll18+++yzPp9PlXb16tWSkhJ9w8cee+zgwYMyErW3t5eUlJSWln7++efHjx/fsGHDqlWrZJkpFiWHs5aWlpKSkkWLFu3Zs+fEiRN79+598skni4qKTp48KXeV6sXrr7/+yiuvHDt27NNPP5XrnD17Vq5DOFOHte2E7d/2vn37ZBquqqrq6elJ3tBxheRNmIMAAgggkFkB2w9wvYpc++HzrPiFgLNnzy5cuPCnn35So0S9vb3PP/98VVWVHKa6c+fOs88+u3HjxkQiMTo6+sc//nHNmjXj4+NCCBlrfD5fdXW1nCOEmJiY+PDDD/ULwGVgWr58+UcffaQS29DQUFlZmb6hDIJPPfXUrVu3hBD79u1btGjRtWvX1CESCoXkwFWKRZZwJmtZtmxZX1+fKmdgYODFF1987rnngsGg3ovt27cnEgm52sWLFxcuXLhp0yaGypRbignbv+2amprS0tLBwcGpNnRcYaoNmY8AAgggkCkB2w/wTBU+t+Vk63PODMPYtGnTypUrVWaSjrt3737uuecGBgbk29ra2scff/zs2bOHDh0qKSlRO1KGs5KSks7OTn0H3L1795lnntm8ebMMfDIwVVRUqAAnhKirq1u8eLEakJObNzc3z58/X45p7du37/HHHz9//rxespxOscgSzurq6h577LHk+wTr6uoKCwuPHz+uwtkzzzxz9+5dVVcoFHrppZf++te/RiKefvyxavDcTqhDQm+GY/ZyXEEvjWkEEEAAgUwJLJ98ydJsP8AzVdHclmMfzkzTTCQS4XDYsz98PjIyUlZWpi4M0ifUyUchRDgc/vVCtGXLlpWUlHzxxRdqjE2Gs5deeikUCuk7QM5Xmc8SmOSau3fv1qvTp+UVY/Kk55NPPnnw4MHR0f/z010pFlnq2r17txqK01vY0dGxePHi3bt3q3BmyWGyC6kHfvQC83w6h/+283zP0n0EEMg9AZnMli9fLruWwx/gejgzH74KvB/OBgcHS0tLX3755RNJr19++UWPROfOnXv88ceXLVt2//59daRaQthU82VgCgQCagUhRHV1dUlJybfffptU8wl5WlMI0dXVtWLFCnmbwpYtW/Sqp1pkCWfV1dW2AUt2vLq6WoUzFSVlIwln+s5ynE7+204kEjt37lyyZIm6+cNSiOMKlvV5iwACCCAwcwGZzP75z3+qopI/wNWibJ+wD2fev+ZsaGjo+eefX7Vq1djYWIp9IO/QLC4ufvzxx/UHIkwVzuSAnCrWNpxt3bpVv20zRe09PT1vvvmm7VPmkxdZwtnWrVttR85u3br11FNP7du3j3CWQj79Rcl/2zL+pni8meMK6dfOmggggAAC6QgkJ7OpbrdPpzTvr6OHM9XaLLhbMxaLVVVVWS63Uh1QE/Kas8bGxq1bt+rPRJDhLHnz1tbWhQsXyugjxG+/dykfpaEKFELU1tb6fD551Zc+33baNM0vvviisLCwsbHRsoJlkSWc1dbW6rcmqG31a9FsIyYjZ8oqnYnkcOY4MOa4Qjr1sg4CCCCAQJoCtsmMcOZPk8/l1WR80W9UFEK0trZevnxZtqSrq2vJkiXyUWdyWt65qcacfD7fu+++q+5zDIfDq1at0i9Zsw1nsijLfZSjo6N///vfZb0jIyPq4jYhxPHjx+fPn9/c3CyESLHIEs76+/v/3//7f5Za5N2aZWVl8tceCWczP+SSw9nMy6QEBBBAAIFMCUyVzAhnHg1n4XC4srLS5/OVlZUdPXr02LFj//Vf/zVv3jx5iZj+yFkhhBymmj9/fn19vQpnZWVlv94TIJ8Qdvjw4aVLlxYWFqrHlU01cmaa5qFDh+bNm/fkk0/u3bu3vr5+x44dixYtkteByYvSli5d+vnnn584ceL9998vLi5etWpVOBxOvcgSzoQQJ0+eXLBggf6csyVLlqgHualepL7mjOecpf6AIJyl9mEpAgggMIcCyclMzpFNyuEP8Gw9rSl3zPj4+Jdffvn000/7fD55aVd9fb18Un9tbe1jjz126NAhdVTJJ4e98MILAwMDasypp6dn48aNvz7ZtbCw8NdfGjh58qQ+6GU7ciaj3rlz55YvXz5v3jyfz/f000/v3btXxi8hxKlTp8rKyh51UXI4kzcWrF69Wv7SwIIFC7Zt29bf3696pHqhP09EzlQ3ExDOFJftRA7/bdv2l5kIIIBAtghMlczy7W5Ntb+y4Joz1dbpTdjGmukVxVZZLdDR0aHH8azuC41HAAEEckZgqmSm7tY0TXOqe+pzACG7R86mvQMIZ9Omy7ENu7u79XHHHOsd3UEAAQSyUcAxmckLe7q7u7Oxd+m0mXAWTYeJdXJVYGhoqLe3N1d7R78QQACBrBNIJ5kJIXp7e+W9cVnXwXQaTDgjnKVznOTyOt3d3Tn8F57Le46+IYBAjgqoq8pU/yxzhoaGcnjYTAhBOCOcqYM/Tyfi8Xh3d3dvb280GuX6szw9COg2Aghkg4BpmtFotLe3t7u7Ox6PZ0OTp9nGPA1n09Ris9wVkP8O6+joaOeFAAIIIOBJgY6Ojjw510E4y924Qc8QQAABBBBAIAsFCGdZuNNoMgIIIIAAAgjkrgDhLHf3LT1DAAEEEEAAgSwUsA9nhmHEYrFQKBQMBv1+j/58UxZq02QEEEAAAQQQQMBBwO/3B4PBUCgUi8WMh6/c/4UABxUWI4AAAggggAACcyRgP3ImhDAMIxKJ9PX1MXI2R7uGahFAAAEEEEAgHwUIZ/m41+kzAggggAACCHhWgHDm2V1DwxBAAAEEEEAgHwUIZ/m41+kzAggggAACCHhWgHDm2V1DwxBAAAEEEEAgHwUIZ/m41+kzAggggAACCHhWgHDm2V1DwxBAAAEEEEAgHwUIZ/m41+kzAggg4FmBeDwejUbDvBBwRSAajcbjca/9ORDOvLZHaA8CCCCQpwITExPRaHR8fNwwjDwloNuuCxiGMT4+Ho1GJyYmXK98ygoJZ1PSsAABBBBAwE0Bb45huClAXXMlIMdr56r25HoJZ8kmzEEAAQQQcFsgHo+Pj4+7XSv1IfBQYHx83DvnN7M7nA0NDXV3d3d0dLTzQgABBBCYfYGOjo7u7u6hoaGH32gZ+/9oNMrZzIxpUtCjCxiGEY1GH327WdnCPpyZpplIJMLhsGd/WzMej3d3d/f29kajUdM0Z8WGQhFAAAEE/q+AaZrRaLS3t7e7uzuzwwzhcPj/VsU7BNwW8M5BqIcz8+GrwPvhbJb+6eb2gUB9CCCAQHYKyBMXGWy7d74XM9gpisouAe8chPbhTAhhGEYkEvHmyNnQ0FBvb2927XJaiwACCOSYQG9vbwbPb3rnezHHdhPdSV/AOwehHs5U+ws8Hs66u7u9c2JYqTGBAAII5JVANBrt7u7OVJe9872YqR5RTtYJeOcgzMpw1tHRwXVmWXfQ02AEEMgxAdM0Ozo6MtUp73wvZqpHlJN1At45CLMynLW3t2fdLqfBCCCAQO4JZPDT2Dvfi7m3m+hRmgLeOQgJZ2nuMlZDAAEEELAKEM6sIrzPZgHC2Yz2XgY/DmbUDjZGAAEE8lsgg5/G3vlezO9dmte9985ByMhZXh+IdB4BBBCYiQDhbCZ6bOs1AcLZjPaI7cfB8PDwpk2byqd+fffdd2nWOjEx0dDQcPXq1TTXT3O1AwcOJLdu9erVu3btunbtmjdvcZghxXfffVdeXv7+++/HYjGLktxfb7/99tjYmGURbxFAIFsEbD+Np9d4j3wvmqbZ3t4emHydPn16eHg4ze6Ew+GmpqZAINDa2pripw7u3LkjC79z585UJXd0dMh19P82NDQ0NzffunUrReFTFcj8NAU8chAKIXJn5Ex+2a9evfrjjz/+zO7V0tKS5u45f/58eXn5+fPn01w/zdVkONuzZ4/eut27d1dVVVVWVv74449pluPmajOkkOGsoqLi559/tjSbcGYB4S0C2SiQe+FsbGysublZpaLOzs4098tshzPVpMuXLycSiTRb5YXVDMPI+O9JzFK/CGczgrX9OJBf9ps2bUr/HzpTNWKGiWSqYmU4S858N27cWLt2bXV19cjIyFTbztX8GVLIcFZeXr5x48a+vj69F4QzXYNpBLJUwPbTeHp98cj3Ym9vr4pBgUDg3LlzaY7uuxbOAoFAT0/P9JDd32pkZOTc5Cv5/In7jXGs0SMHYQ6OnGVjODMM48MPP6ysrGxtbXU8dFxeISPhbNu2bRUVFZ988on+rz3Cmcu7kuoQmA2BHAtnExMTV69eDQQCZ8+evXbtmkxpaf4gzWyEs/v376u9Fo/Hb9682dDQEAgErly5MjExoRZ5diIWi507d05mXMLZI+2mXDut6RjOxsbG3n777QMHDty+fXvXrl2Vk69du3bdvn1bwulXhq1du1aOaZumee3atZ07d1ZWVlZUVLz55ptnzpxRV4nJMvfv319fX79mzZqqqqpvv/02+S9nqpEzIYS+6Pz582vXrm1ubt61a1dFRcVbb70VDAaFEH19ffv27Vu9enV5efm6dev8fr/+MwkHDhzYtGnT1atXZaeqqqree+89uaE6IKLRqN/vX7duXXl5+erVqz/99FN9lDG53g8++EBdJLd27dqLFy9u3rx5+/btln9bHDx4cN26dbb/kpMjZ4FAQLaqsbFRNSY5nMnmbdy4saKiory8fO3atXoLOzs7165de+bMmZ9++mnjxo0S4R//+Ec8Hm9paXnzzTcrKirWrFnzzTff6BFwYmKiqalJLq2srNy5c2dbW5tqAxMIIDBDgRwLZypgXb16dXR0VF5DdvXq1eTPcyHE4ODghQsXGhoaGhsbOzs7R0ZGkq85Mwzj1q1bZ86cCQQCzc3N9+7de6RrzvRwJoQYHx+Xp1zlZW2GYbS2tgYCgaampoGBgZaWlkAgcOHCBfXVMDo6evny5dOnT8t1bty4MT4+ru9xeXFbU1PT6OhoV1dXY2NjIBA4f/784OCgvpoQYnR09NKlSzIaNjc39/b26ib379+XQbatre327dunJ19tbW36GKRsg5zZ0NBg6VpnZ2cgEEieb2nGbL+1fLvNdnUpys/TcLZ58+b169fv37+/sbHx4MGDq1evXr9+vcxnN27c8Pv95eXlfr//3LlzDx48ME3zH//4R2Vl5aZNm44fP37y5Ek5FPT999/LfCbD2dq1azds2PDDDz8cO3bMNgHoCUzfJQ8ePNi+ffv69evl9aHnz5+vrKx87bXXPvjgg19++eXYsWOxWOzGjRvr1q177bXX/H5/Y2Pj/v37Kysrt2/fro7vAwcOVFVVrV27dtu2bSdPnjxy5Mjq1avXrVvX1dUl6xoYGHjrrbcqKyv1Xr/55psDAwNyheR6r127plOEQqGamppXX331+vXrqv0jIyPV1dXvvPOO7b+KZDg7f/68OnWrGmwJZyMjI9u2bauqqvr0008bGxtPnjy5e/fuiooKdTOBDGfbtm1bt27dt99+e+LEiTfeeKOiouKDDz5Yv379N998c/Lkybfeeku/vi2RSHzxxRcVFRXS5Pjx45s2baqqqjpz5oxqPxMIIDATgRwLZz09PWq0TI2iNTY2hkIhi9KdO3dkUlH5o6mpScYgdUOAYRhXrlxRK8jwIYNaIBBI54YA9YEphEgeOVPh7PTp0zIXBgKBS5cuGYZhmmZXV5elhTIe6T+HKsPZ6dOnz549a2mn3rze3l7ZNX2dK1euqFsTVDhTCA0NDbdu3dLXl7X39/fLCKj/toT8N7ZMlvF43ELt5luvhzPTNBOJRDgc9uYPn9t+HMgvezXSY5lQdwXKIFVRUaGilRDip59+Ki8vVxetW87l/Rra1q9fv2vXrkgkIo+SRCLxySefrF69Wh5esszKyspLly6lOIySw5lpmgMDAx9//HFFRcVHH30kh3xk7XrciUQiO3bsWLdu3Y0bN2T5pmmeOnWqoqLiyy+/lAFRFr5nzx7VyOvXr69evfp//ud/5B/ql19+WVlZqY9dycAkVxBCJNerZqrr5C5dulRZWXnkyBHVTTlH0an5ckKFM9M0jx49Wl5erhpsCWfnzp1bu3btTz/9pEpIJBJ79+597bXXbt26JYSQ4Wz9+vXyrRDi+vXrr7766urVq1VY7O/v37Bhw3vvvSf/vC9fvlxVVaWfTo1EIrt27Xr99df7+/tVRUwggMC0BWw/jadX2px/LyYSiYsXL8pzmnLwSV1/ZrktIBKJyDTT1NR0//590zTD4fD58+dlFlHhrLe3V8ajixcvjo2NmabZ19enUo6efixitndr6kFHnmlV4SwQCFy8eHF8fNwwDDk2NjAwYKl6aGhI5sKzZ8+qrwlVUXNzcygUMk3z/v37Muepi+1UZ1tbW+PxuN4LdcJEhbOGhobe3l7TNGVjkk9rqjar8oUQw8PDkkUVaAFx7e2cH4Sqp/rImfnwVZC94WyquzW///57+YUtg9SGDRv0r+ebN2+uWbNGPWvDEs6+++67ioqKc+fOKTWVDGRMkWW+/vrr+r9y9JXltMxPltQo3+7cuVNtK2s/duyYKqG1tdUSiYQQ4XB4+/btb7zxhryN4MCBA5YxLXkpmxyQGxoa2rx5s0qosmS5gqJIrjc5nI2Ojm7ZskWd2TRNs6amJkXWUeFMCDEyMvLWW29VVVVdvnxZ/jVu2rTJ0iTVZTnx3XffqTPLMpx9+OGH6t9qMt79evJXjeFHo9Fdu3bJMk3T/OSTT9TmquSGhoby8vKGhgY1hwkEEJi2QC6Fs5GRERkRrl+/rs6KyEumLly4oI/oqNCm/q0ohLh3757MQzKcqYG306dPq5u99Od0TDucXb16VX4MqqATCAT0C+PU/DNnzqgcJoTo7++XCU/9XL0KZ/rm8gyjKlOOJp4+fXp0dFQeJ4ZhXL58ORAItLS0SBYVztQcuWZyOBNCSL2GhoZ79+7J1WSNtiOU0z4yp7eh18OZEMIwjEgkknUjZ2lec7ZlyxZ1nKlRmYMHD8rdaQlnMvd89913Z7TXjz/+uGbNGpkVZDhTkWWqY0INbumP0vj+++87Ozv1k/eydj09/PDDD+Xl5WfPnrWUfODAARU+5DVn+jVkQggZK1taWmSy2bVrl9aD3ybfffddFemS600OZ0KII0eOqE3kOU019mZpnmyA/lASOZS1ffv2Bw8eWEbO5LbxeLynp6exsdHv9+/YsUOeqJX/ZpVdOHDggKpFlvDxxx9bLv6T4UzulHXr1p04cULvdW1tbXLSVWUygQACjySQS+FMhRJ1sYfKUnqSEELcuHFDphz1j2ohRDQalcNpMpzF43E5lnbu3Dn9qg8V7B41nJ0+fbqlpWVgYEB9X6gQpicnvSWXL19W/5qV/6SXg2dqbE+Gs6ampgcPHqj9rpJWZ2enaZrXr1/XB+306TNnzsg0ozZRuVaWZhvO1MNK2tvbTdNU60x1bZ9qmAsT3gxnquMFOR/OLAM2li9+PZzJ73jb4a7y8nI9B1jKVJpqIvm0plqkT+i1y/n6+JO+piWc6WNIlg1lmVP1Qp61TK7XNpx1dHSsXr1aDhn+Oi5dWVlpGVPUW2hpuWEYX3zxRXl5+d///vehoSF95CyRSPw6uilvd5D3K7zzzjvvvvuuSp9yH6nRTTX2psc1ubPkjpDRbaou61vpDWYaAQQeSSBnwpmKCHr40Kf12KEGnPRwpkqQ0Ue9tYQzlWPSCWd6+cn7RYWzpqYmPVWo2xpUCJPbqiap+Sqc6ZurFnZ0dKgqdAo1rerVN9HbqWrUEVTkbW5uHhsbu3//vhxx1Efv9ELcnNYd3Kw3uS79tKZaSjj734fQmqb58ccfq6v1lZE+oWcCfb5letrhbNojZ8eOHZNP6JDnbdXQoKVh8m2a4UxeACdHvz755JPUj2ezhDMhxMDAwBtvvLFu3brm5mY9nP38888VFRU7d+68deuWOn1w5MiRaYczeYrTMkRq23FmIoDAtAVyJpypk5IqeVgm9FOEro2cTS+cqTG8qUbO1JM4ZDizDLyppCXP6shni6gcZnuoqE30y/zlTQy2w4fqIrPe3l75ewz6JWi2Vbgzk3A2I2fbjwM5UpLmaU3LKFeKkTN5Is/2mjP5PAshxGyHM3nNmSVaJV9zpnKMxDUmH58mLymTV8pbem0YxkcffVRdXS1vU00znMn7J1599dWmpqbq6mpLqyz7NTmcCSEaGxsrKyvfeOONtWvXyibF4/H33ntvzZo1N2/eVCXI9qtOPerImWVzVWxDQ8PatWtPnjyp5jCBAALTFrD9NJ5eaXP4vajGciyBzPJWXa6uTk3O9jVn0wtnhmFcunQpEAjogVK/5kx1RA0BqjlCiO7ubtlxeXrX8lZ+5elP9BBCTBXOjIcP+9BHzmRokw/+OHfunDzTarnlYnqH0My3msOD0NJ4Rs5+A5Ff/OpUl4wp6hovuXTXrl3qrPzY2Nh7772nbs+c7XCW4m7Nmpoa/W7Nzz77TD3l68qVK/JhZsbk69NPP62srDx9+rS6QuvXu3uqqqrUbaEpwpmikEdPT0/PunXr9uzZs27dOnWnpOXAkm9tw1kikfjoo4/kCUcZzmSQevXVV69cuaLK+fUK3NWrV6vr2+ReSP+0phDi7NmzlZWVv14yqC74GB4e3rJly1RPZVNVM4EAAmkK5EY4U0NNtuM3apjn4sWL8gN2bGxM3iiQ+m5NNRo37bs1pxfO5EX3U92tKU8myv2rwtmZM2eGh4dN0xweHpZpSVGEQiH1/LNwODwxMaGeSaZORDqGM3l12sTEhPoCUk8tCQQCj/QbpmkemdNbjXA2Pbd/bWX7cSBHzqa6W/Ozzz6TN2zaBilLOJPPjFffPAAAIABJREFUaNi5c+eZM2fkc86+//77iooK/Tln5eXlKgnZlpncw2mf1pTXnyY/5+ytt95SF64eOHCgoqKisrJyz549DQ0N8uFt+mPMBgYG3nzzTctzztZpj+ewDWcWCtkpOdBVXl6+Y8cO/Vag5C7bhjMhhHw6ibpoTwWpDRs2HD9+vKGhYd++fVVVVb+Wr+4nmEY4SyQSn332WXl5uf6cM8tTVJLbzBwEEEhfwPbTOP3N9TXn8HtRjYTJS9T1VslhngsXLlgyRPKjv9QjvtQVXYZhWB7E2tDQIKPPNJ5zZmmVvDRcPYTWomeapvo5AX38r6mpyfY5Z7KDas3Tp0/rz6FNfqhbIBBob29XtyZMFc6EECr/yeecqXaqC+PUs9mSO+j+HNU896u21JhrI2dTXQCucoBtkLKEs0Qicfjw4aqqqoqKCvlz6fovBMhfivzpp5/UGJVtmRZoy88AJC9Vc2xDkhAiGAy+//778pL5DRs2pP6FgOQfAJC38KhfCEj+CQHbepMpZDvlAyn0cSzVfn1iqnAmhPjHP/5RUVGhzrSaptnY2Cgf/S/bdvv2bRkNa2tr1eimXqOM42q80/b8sv4LAck/7aA3lWkEEJiGQA6EM/XMi0AgoP65a6FQN3Lq6W1kZKSlpSX1LwRMTEzcvXtXBrKZ/0KApVXqpOFUF4SNjo5euXJFPh+kqakp9S8E3L17t6mpqaGhoaWlRT37Q9Wo/9jA2bNn7969q5JZitOaMtq2tbXJYbyzZ8+q5yTo7PpJVVXjnEwQzmbEnsGPgxm1w0sb2z5KY/Ya+PPPP3NycPZ4KRmBbBHI4Kexd74XswV/5u2Uw1pTZbuZl5+iBBXOLBfGpdjEhUXeOQhzZ+TMhd3m5SrcDGfyOfspHm/mZSjahgACGRQgnGUQ0/2i5iScycfd37t3Tw7peeHxZkqecKYopjORwY+D6VTvyW3cCWeXL1/+7LPP9Af9exKDRiGAgEsCGfw09s73okt2HqjG/XBmeaqtd24FkHvDOwchI2ce+PvIRBNcC2dVVVVr1qypr69XN91kovmUgQACWSlAOMvK3faw0e6HMyHEzZs35W/AX7hwQb874WGj5vL/CWcz0s/gx8GM2sHGCCCAQH4LZPDT2Dvfi/m9S/O69945CBk5y+sDkc4jgAACMxEgnM1Ej229JuD1cGaaZiKRCIfD3vzh846ODs6pee2Ypj0IIJBvAqZpWn6uZyYC3vlenEkv2DarBbxzEOojZ/IWCtM0Czwezrq7u6PRaFYfATQeAQQQyHaBaDTa3d2dqV5453sxUz2inKwT8M5BaB/O5KOHI5GIN0fOhoaG1K9GZN2+p8EIIIBAbgj09vZm8IJu73wv5sbeoRfTEPDOQaiHM9WRAo+HM/nLrBn8UFA9ZwIBBBBAIB2BoaGhDA6bCSG8872YTvdZJycFvHMQZms4i8fj3d3dvb290WiU689y8o+ETiGAgAcFTNOMRqO9vb3d3d3xeDyDLfTO92IGO0VR2SXgnYMwW8OZ3N/yn24dHR3tvBBAAAEEZl+go6Oju7t7Nk5cRKNRwzCy67uc1uaSgGEY3rmcPbvDWS4dFvQFAQQQyGeBeDw+Pj6ezwL0fW4FxsfHMzsYPJPuEM5mose2CCCAAAIZE4hGo975dsxYrygoGwTi8bh3hs2EEISzbDhqaCMCCCCQBwITExPRaHR8fJzzm3mwt73SRcMwxsfHo9HoxMSEV9pEOPPOnqAlCCCAAAJCCDmGEeaFgCsC3hyvZeSMD0MEEEAAAQQQQMBDAoQzD+0MmoIAAggggAACCBDOOAYQQAABBBBAAAEPCRDOPLQzaAoCCCCAAAIIIEA44xhAAAEEEEAAAQQ8JEA489DOoCkIIIAAAggggIB9ODMMIxaLhUKhYDDo9/thQgABBBBAAAEEEHBHwO/3B4PBUCgUi8WMh68CIYRhGJFIpK+vj3Dmzp6gFgQQQAABBBBAgF8I4BhAAAEEEEAAAQS8JWB/WpORM2/tJVqDAAIIIIAAAnkjQDjLm11NRxFAAAEEEEAgGwQIZ9mwl2gjAggggAACCOSNAOEsb3Y1HUUAAQQQQACBbBAgnGXDXqKNCCCAAAIIIJA3AoSzvNnVdBQBBBBAAAEEskGAcJYNe4k2IoAAAggggEDeCBDO8mZX01EEEEAAAQQQyAYBwlk27CXaiAACCCCAAAJ5I0A4y5tdTUcRQAABBBBAIBsECGfZsJdoIwIIIIAAAgjkjYB9ODNNM5FIhMNhfvg8b44EOooAAggggAACnhDQw5n58FVAOPPEzqERCCCAAAIIIJB/AvbhjB8+z78jgR4jgAACCCCAgCcE9HCmGlRAOFMWTCCAAAIIIIAAAm4KEM7c1KYuBBBAAAEEEEDAQYBw5gDEYgQQQAABBBBAwE0Bwpmb2tSFAAIIIIAAAgg4CBDOHIBYjAACCCCAAAIIuClAOHNTm7oQQAABBBBAAAEHAcKZAxCLEUAAAQQQQAABNwUIZ25qUxcCCCCAAAIIIOAgQDhzAGIxAggggAACCCDgpgDhzE1t6kIAAQQQQAABBBwECGcOQCxGAAEEEEAAAQTcFCCcualNXQgggAACCCCAgIOAfTgzTTORSITD4b6+Pr/f71AGixFAAAEEEEAAAQQyJKCHM/Phq4BwliFeikEAAQQQQAABBB5NwD6cCSEMw4hEIoycPRonayOAAAIIIIAAAjMT0MOZKqmAcKYsmEAAAQQQQAABBNwUIJy5qU1dCCCAAAIIIICAgwDhzAGIxQgggAACCCCAgJsChDM3takLAQQQQAABBBBwECCcOQCxGAEEEEAAAQQQcFOAcOamNnUhgAACCCCAAAIOAoQzByAWI4AAAggggAACbgoQztzUpi4EEEAAAQQQQMBBgHDmAMRiBBBAAAEEEEDATQHCmZva1IUAAggggAACCDgIEM4cgFiMAAIIIIAAAgi4KUA4c1ObuhBAAAEEEEAAAQcB+3BmmmYikQiHw/zwuYMfixFAAAEEEEAAgYwK6OHMfPgqIJxlFJnCEEAAAQQQQACBdAXsw5kQwjCMSCTCyFm6kKyHAAIIIIAAAghkQkAPZ6q8AsKZsmACAQQQQAABBBBwU4Bw5qY2dSGAAAIIIIAAAg4ChDMHIBYjgAACCCCAAAJuChDO3NSmLgQQQAABBBBAwEGAcOYAxGIEEEAAAQQQQMBNAcKZm9rUhQACCCCAAAIIOAgQzhyAWIwAAggggAACCLgpQDhzU5u6EEAAAQQQQAABBwHCmQMQixFAAAEEEEAAATcFCGdualMXAggggAACCCDgIEA4cwBiMQIIIIAAAggg4KYA4cxNbepCAAEEEEAAAQQcBAhnDkAsRgABBBBAAAEE3BSwD2eGYcRisVAoFAwG/X6/mw2iLgQQQAABBBBAIJ8F/H5/MBgMhUKxWMx4+CoQQhiGEYlE+vr6CGf5fHzQdwQQQAABBBBwWcB+5Ixw5vJuoDoEEEAAAQQQQEAKEM44EhBAAAEEEEAAAQ8JEM48tDNoCgIIIIAAAgggQDjjGEAAAQQQQAABBDwkQDjz0M6gKQgggAACCCCAAOGMYwABBBBAAAEEEPCQAOHMQzuDpiCAAAIIIIAAAoQzjgEEEEAAAQQQQMBDAoQzD+0MmoIAAggggAACCBDOOAYQQAABBBBAAAEPCRDOPLQzaAoCCCCAAAIIIEA44xhAAAEEEEAAAQQ8JGAfzkzTTCQS4XCYHz730L6iKQgggAACCCCQBwJ6ODMfvgoIZ3mw6+kiAggggAACCHhRwD6cCSEMw4hEIoyceXGn0SYEEEAAAQQQyF0BPZypXhYQzpQFEwgggAACCCCAgJsChDM3takLAQQQQAABBBBwECCcOQCxGAEEEEAAAQQQcFOAcOamNnUhgAACCCCAAAIOAoQzByAWI4AAAggggAACbgoQztzUpi4EEEAAAQQQQMBBgHDmAMRiBBBAAAEEEEDATQHCmZva1IUAAggggAACCDgIEM4cgFiMAAIIIIAAAgi4KUA4c1ObuhBAAAEEEEAAAQcBwpkDEIsRQAABBBBAAAE3BQhnbmpTFwIIIIAAAggg4CBgH85M00wkEuFwmB8+d/BjMQIIIIAAAgggkFEBPZyZD18FhLOMIlMYAggggAACCCCQroB9OBNCGIYRiUQYOUsXkvUQQAABBBBAAIFMCOjhTJVXQDhTFkwggAACCCCAAAJuChDO3NSmLgQQQAABBBBAwEGAcOYAxGIEEEAAAQQQQMBNAcKZm9rUhQACCCCAAAIIOAgQzhyAWIwAAggggAACCLgpQDhzU5u6EEAAAQQQQAABBwHCmQMQixFAAAEEEEAAATcFCGdualMXAggggAACCCDgIEA4cwBiMQIIIIAAAggg4KYA4cxNbepCAAEEEEAAAQQcBAhnDkAsRgABBBBAAAEE3BQgnLmpTV0IIIAAAggggICDgH04M00zkUiEw2F++NzBj8UIIIAAAggggEBGBfRwZj58FRDOMopMYQgggAACCCCAQLoC9uFMCGEYRiQSYeQsXUjWQwABBBBAAAEEMiGghzNVXgHhTFkwgQACCCCAAAIIuClAOHNTm7oQQAABBBBAAAEHAcKZAxCLEUAAAQQQQAABNwUIZ25qUxcCCCCAAAIIIOAgQDhzAGIxAggggAACCCDgpgDhzE1t6kIAAQQQQAABBBwECGcOQCxGAAEEEEAAAQTcFCCcualNXQgggAACCCCAgIMA4cwBiMUIIIAAAggggICbAoQzN7WpCwEEEEAAAQQQcBAgnDkAsRgBBBBAAAEEEHBTgHDmpjZ1IYAAAggggAACDgKEMwcgFiOAAAIIIIAAAm4K2IczwzBisVgoFAoGg36/380GURcCCCCAAAIIIJDPAn6/PxgMhkKhWCxmPHwVCCEMw4hEIn19fYSzfD4+6DsCCCCAAAIIuCxgP3JGOHN5N1AdAggggAACCCAgBQhnHAkIIIAAAggggICHBAhnHtoZNAUBBBBAAAEEECCccQwggAACCCCAAAIeEiCceWhn0BQEEEAAAQQQQIBwxjGAAAIIIIAAAgh4SIBw5qGdQVMQQAABBBBAAAHCGccAAggggAACCCDgIQHCmYd2Bk1BAAEEEEAAAQQIZxwDCCCAAAIIIICAhwQIZx7aGTQFAQQQQAABBBAgnHEMIIAAAggggAACHhKwD2emaSYSiXA4zA+fe2hf0RQEEEAAAQQQyAMBPZyZD18FhLM82PV0EQEEEEAAAQS8KGAfzoQQhmFEIhFGzry402gTAggggAACCOSugB7OVC8LCGfKggkEEEAAAQQQQMBNAcKZm9rUhQACCCCAAAIIOAgQzhyAWIwAAggggAACCLgpQDhzU5u6EEAAAQQQQAABBwHCmQMQixFAAAEEEEAAATcFCGdualMXAggggAACCCDgIEA4cwBiMQIIIIAAAggg4KYA4cxNbepCAAEEEEAAAQQcBAhnDkAsRgABBBBAAAEE3BQgnLmpTV0IIIAAAggggICDAOHMAYjFCCCAAAIIIICAmwKEMze1qQsBBBBAAAEEEHAQsA9npmkmEolwOMwPnzv4sRgBBBBAAAEEEMiogB7OzIevAsJZRpEpDAEEEEAAAQQQSFfAPpwJIQzDiEQijJylC8l6CCCAAAIIIIBAJgT0cKbKKyCcKQsmEEAAAQQQQAABNwUIZ25qUxcCCCCAAAIIIOAgQDhzAGIxAggggAACCCDgpgDhzE1t6kIAAQQQQAABBBwECGcOQCxGAAEEEEAAAQTcFCCcualNXQgggAACCCCAgIMA4cwBiMUIIIAAAggggICbAoQzN7WpCwEEEEAAAQQQcBAgnDkAsRgBBBBAAAEEEHBTgHDmpjZ1IYAAAggggAACDgKEMwcgFiOAAAIIIIAAAm4KEM7c1KYuBBBAAAEEEEDAQcA+nJmmmUgkwuEwP3zu4MdiBBBAAAEEEEAgowJ6ODMfvgoIZxlFpjAEEEAAAQQQQCBdAftwJoQwDCMSiTByli4k6yGAAAIIIIAAApkQ0MOZKq+AcKYsmEAAAQQQQAABBNwUIJy5qU1dCCCAAAIIIICAgwDhzAGIxQgggAACCCCAgJsChDM3takLAQQQQAABBBBwECCcOQCxGAEEEEAAAQQQcFOAcOamNnUhgAACCCCAAAIOAoQzByAWI4AAAggggAACbgoQztzUpi4EEEAAAQQQQMBBgHDmAMRiBBBAAAEEEEDATQHCmZva1IUAAggggAACCDgIEM4cgFiMAAIIIIAAAgi4KUA4c1ObuhBAAAEEEEAAAQcBwpkDEIsRQAABBBBAAAE3BezDmWEYsVgsFAoFg0G/3+9mg6gLAQQQQAABBBDIZwG/3x8MBkOhUCwWMx6+CoQQhmFEIpG+vj7CWT4fH/QdAQQQQAABBFwWsB85I5y5vBuoDgEEEEAAAQQQkAKEM44EBBBAAAEEEEDAQwKEMw/tDJqCAAIIIIAAAggQzjgGEEAAAQQQQAABDwkQzjy0M2gKAggggAACCCBAOOMYQAABBBBAAAEEPCRAOPPQzqApCCCAAAIIIIAA4YxjAAEEEEAAAQQQ8JAA4cxDO4OmIIAAAggggAAChDOOAQQQQAABBBBAwEMChDMP7QyaggACCCCAAAIIEM44BhBAAAEEEEAAAQ8J2Icz0zQTiUQ4HOaHzz20r2gKAggggAACCOSBgB7OzIevAsJZHux6uogAAggggAACXhSwD2dCCMMwIpEII2de3Gm0CQEEEEAAAQRyV0APZ6qXBYQzZcEEAggggAACCCDgpgDhzE1t6kIAAQQQQAABBBwECGcOQCxGAAEEEEAAAQTcFCCcualNXQgggAACCCCAgIMA4cwBiMUIIIAAAggggICbAoQzN7WpCwEEEEAAAQQQcBAgnDkAsRgBBBBAAAEEEHBTgHDmpjZ1IYAAAggggAACDgKEMwcgFiOAAAIIIIAAAm4KEM7c1KYuBBBAAAEEEEDAQYBw5gDEYgQQQAABBBBAwE0Bwpmb2tSFAAIIIIAAAgg4CNiHM9M0E4lEOBzmh88d/FiMAAIIIIAAAghkVEAPZ+bDVwHhLKPIFIYAAggggAACCKQrYB/OhBCGYUQiEUbO0oVkPQQQQAABBBBAIBMCejhT5RUQzpQFEwgggAACCCCAgJsChDM3takLAQQQQAABBBBwECCcOQCxGAEEEEAAAQQQcFOAcOamNnUhgAACCCCAAAIOAoQzByAWI4AAAggggAACbgoQztzUpi4EEEAAAQQQQMBBgHDmAMRiBBBAAAEEEEDATQHCmZva1IUAAggggAACCDgIEM4cgFiMAAIIIIAAAgi4KUA4c1ObuhBAAAEEEEAAAQcBwpkDEIsRQAABBBBAAAE3BQhnbmpTFwIIIIAAAggg4CBgH85M00wkEuFwmB8+d/BjMQIIIIAAAgggkFEBPZyZD18FhLOMIlMYAggggAACCCCQroB9OBNCGIYRiUQYOUsXkvUQQAABBBBAAIFMCOjhTJVXQDhTFkwggAACCCCAAAJuChDO3NSmLgQQQAABBBBAwEGAcOYAxGIEEEAAAQQQQMBNAcKZm9rUhQACCCCAAAIIOAgQzhyAWIwAAggggAACCLgpQDhzU5u6EEAAAQQQQAABBwHCmQMQixFAAAEEEEAAATcFCGdualMXAggggAACCCDgIEA4cwBiMQIIIIAAAggg4KYA4cxNbepCAAEEEEAAAQQcBAhnDkAsRgABBBBAAAEE3BQgnLmpTV0IIIAAAggggICDAOHMAYjFCCCAAAIIIICAmwL24cwwjFgsFgqFgsGg3+93s0HUhQACCCCAAAII5LOA3+8PBoOhUCgWixkPXwVCCMMwIpFIX18f4Syfjw/6jgACCCCAAAIuC9iPnBHOXN4NVIcAAggggAACCEgBwhlHAgIIIIAAAggg4CEBwpmHdgZNQQABBBBAAAEECGccAwgggAACCCCAgIcECGce2hk0BQEEEEAAAQQQIJxxDCCAAAIIIIAAAh4SIJx5aGfQFAQQQAABBBBAgHDGMYAAAggggAACCHhIgHDmoZ1BUxBAAAEEEEAAAcIZxwACCCCAAAIIIOAhAcKZh3YGTUEAAQQQQAABBAhnHAMIIIAAAggggICHBOzDmWmaiUQiHA7zw+ce2lc0BQEEEEAAAQTyQEAPZ+bDVwHhLA92PV1EAAEEEEAAAS8K2IczIYRhGJFIhJEzL+402oQAAggggAACuSughzPVywLCmbJgAgEEEEAAAQQQcFOAcOamNnUhgAACCCCAAAIOAoQzByAWI4AAAggggAACbgoQztzUpi4EEEAAAQQQQMBBgHDmAMRiBBBAAAEEEEDATQHCmZva1IUAAggggAACCDgIEM4cgFiMAAIIIIAAAgi4KUA4c1ObuhBAAAEEEEAAAQcBwpkDEIsRQAABBBBAAAE3BQhnbmpTFwIIIIAAAggg4CBAOHMAYjECCCCAAAIIIOCmAOHMTW3qQgABBBBAAAEEHATsw5lpmolEIhwO88PnDn4sRgABBBBAAAEEMiqghzPz4auAcJZRZApDAAEEEEAAAQTSFbAPZ0IIwzAikQgjZ+lCsh4CCCCAAAIIIJAJAT2cqfIKCGfKggkEEEAAAQQQQMBNAcKZm9rUhQACCCCAAAIIOAgQzhyAWIwAAggggAACCLgpQDhzU5u6EEAAAQQQQAABBwHCmQMQixFAAAEEEEAAATcFCGdualMXAggggAACCCDgIEA4cwBiMQIIIIAAAggg4KYA4cxNbepCAAEEEEAAAQQcBAhnDkAsRgABBBBAAAEE3BQgnLmpTV0IIIAAAggggICDAOHMAYjFCCCAAAIIIICAmwKEMze1qQsBBBBAAAEEEHAQsA9npmkmEolwOMwPnzv4sRgBBBBAAAEEEMiogB7OzIevAsJZRpEpDAEEEEAAAQQQSFfAPpwJIQzDiEQijJylC8l6CCCAAAIIIIBAJgT0cKbKKyCcKQsmEEAAAQQQQAABNwUIZ25qUxcCCCCAAAIIIOAgQDhzAGIxAggggAACCCDgpgDhzE1t6kIAAQQQQAABBBwECGcOQCxGAAEEEEAAAQTcFCCcualNXQgggAACCCCAgIMA4cwBiMUIIIAAAggggICbAoQzN7WpCwEEEEAAAQQQcBAgnDkAsRgBBBBAAAEEEHBTgHDmpjZ1IYAAAggggAACDgKEMwcgFiOAAAIIIIAAAm4KEM7c1KYuBBBAAAEEEEDAQYBw5gDEYgQQQAABBBBAwE0B+3BmGEYsFguFQsFg0O/3u9kg6kIAAQQQQAABBPJZwO/3B4PBUCgUi8WMh68CIYRhGJFIpK+vj3CWz8cHfUcAAQQQQAABlwXsR84IZy7vBqpDAAEEEEAAAQSkAOGMIwEBBBBAAAEEEPCQAOHMQzuDpiCAAAIIIIAAAoQzjgEEEEAAAQQQQMBDAoQzD+0MmoIAAggggAACCBDOOAYQQAABBBBAAAEPCRDOPLQzaAoCCCCAAAIIIEA44xhAAAEEEEAAAQQ8JEA489DOoCkIIIAAAggggADhjGMAAQQQQAABBBDwkADhzEM7g6YggAACCCCAAAKEM44BBBBAAAEEEEDAQwL24cw0zUQiEQ6H+eFzD+0rmoIAAggggAACeSCghzPz4auAcJYHu54uIoAAAggggIAXBezDmRDCMIxIJMLImRd3Gm1CAAEEEEAAgdwV0MOZ6mUB4UxZMIEAAggggAACCLgpQDhzU5u6EEAAAQQQQAABBwHCmQMQixFAAAEEEEAAATcFCGdualMXAggggAACCCDgIEA4cwBiMQIIIIAAAggg4KYA4cxNbepCAAEEEEAAAQQcBAhnDkAsRgABBBBAAAEE3BQgnLmpTV0IIIAAAggggICDAOHMAYjFCCCAAAIIIICAmwKEMze1qQsBBBBAAAEEEHAQIJw5ALEYAQQQQAABBBBwU4Bw5qY2dSGAAAIIIIAAAg4C9uHMNM1EIhEOh/nhcwc/FiOAAAIIIIAAAhkV0MOZ+fBVQDjLKDKFIYAAAggggAAC6QrYhzMhhGEYkUiEkbN0IVkPAQQQQAABBBDIhIAezlR5BYQzZcEEAggggAACCCDgpgDhzE1t6kIAAQQQQAABBBwECGcOQCxGAAEEEEAAAQTcFCCcualNXQgggAACCCCAgIMA4cwBiMUIIIAAAggggICbAoQzN7WpCwEEEEAAAQQQcBAgnDkAsRgBBBBAAAEEEHBTgHDmpjZ1IYAAAggggAACDgKEMwcgFiOAAAIIIIAAAm4KEM7c1KYuBBBAAAEEEEDAQYBw5gDEYgQQQAABBBBAwE0Bwpmb2tSFAAIIIIAAAgg4CNiHM9M0E4lEOBzmh88d/FiMAAIIIIAAAghkVEAPZ+bDVwHhLKPIFIYAAggggAACCKQrYB/OhBCGYUQiEUbO0oVkPQQQQAABBBBAIBMCejhT5RUQzpQFEwgggAACCCCAgJsChDM3takLAQQQQAABBBBwECCcOQCxGAEEEEAAAQQQcFOAcOamNnUhgAACCCCAAAIOAoQzByAWI4AAAggggAACbgoQztzUpi4EEEAAAQQQQMBBgHDmAMRiBBBAAAEEEEDATQHCmZva1IUAAggggAACCDgIEM4cgFiMAAIIIIAAAgi4KUA4c1ObuhBAAAEEEEAAAQcBwpkDEIsRQAABBBBAAAE3BQhnbmpTFwIIIIAAAggg4CBAOHMAYjECCCCAAAIIIOCmgH04MwwjFouFQqFgMOj3+91sEHUhgAACCCCAAAL5LOD3+/9/e/fCFcWV7g2cLzDfId+kbELagKiMeGmMHA0zYZFwRry8RkYd422Eg2hcMZkZYt6XOWrwMkjkxBlGBSISV0xigmYco8EDgkg3XjqK3c2lm9pv2kcft9XVXbtv1Q38e2WZomr33rt+VU3xqDV9AAAgAElEQVT92XXp4eHh0dHRiYmJ0PNXjhAiFAr5/X6Px4NwNpv3D6w7BCAAAQhAAAI2C5iPnCGc2bwZ0BwEIAABCEAAAhAgAYQz7AkQgAAEIAABCEAgiwQQzrJoY6ArEIAABCAAAQhAAOEM+wAEIAABCEAAAhDIIgGEsyzaGOgKBCAAAQhAAAIQQDjDPgABCEAAAhCAAASySADhLIs2BroCAQhAAAIQgAAEEM6wD0AAAhCAAAQgAIEsEkA4y6KNga5AAAIQgAAEIAABhDPsAxCAAAQgAAEIQCCLBBDOsmhjoCsQgAAEIAABCEAA4Qz7AAQgAAEIQAACEMgiAfNwput6MBj0+Xz44vMs2lboCgQgAAEIQAACs0BADmf681cOwtks2PRYRQhAAAIQgAAEslHAPJwJIUKhkN/vx8hZNm409AkCEIAABCAAgZkrIIczXsschDO2wAQEIAABCEAAAhCwUwDhzE5ttAUBCEAAAhCAAAQsBBDOLICwGAIQgAAEIAABCNgpgHBmpzbaggAEIAABCEAAAhYCCGcWQFgMAQhAAAIQgAAE7BRAOLNTG21BAAIQgAAEIAABCwGEMwsgLIYABCAAAQhAAAJ2CiCc2amNtiAAAQhAAAIQgICFAMKZBRAWQwACEIAABCAAATsFEM7s1EZbEIAABCAAAQhAwEIA4cwCCIshAAEIQAACEICAnQIIZ3Zqoy0IQAACEIAABCBgIWAeznRdDwaDPp8PX3xu4YfFEIAABCAAAQhAIKUCcjjTn79yEM5SiozKIAABCEAAAhCAgKqAeTgTQoRCIb/fj5EzVUiUgwAEIAABCEAAAqkQkMMZ15eDcMYWmIAABCAAAQhAAAJ2CiCc2amNtiAAAQhAAAIQgICFAMKZBRAWQwACEIAABCAAATsFEM7s1EZbEIAABCAAAQhAwEIA4cwCCIshAAEIQAACEICAnQIIZ3Zqoy0IQAACEIAABCBgIYBwZgGExRCAAAQgAAEIQMBOAYQzO7XRFgQgAAEIQAACELAQQDizAMJiCEAAAhCAAAQgYKcAwpmd2mgLAhCAAAQgAAEIWAggnFkAYTEEIAABCEAAAhCwUwDhzE5ttAUBCEAAAhCAAAQsBMzDma7rwWDQ5/Phi88t/LAYAhCYEQJer3dgYKC3t/cnvGIK9Pb2DgwMeL3exDY7nGPqvliYpPMdn/j+gej2iAtu/BdLoNsThrrjS2x3TuO75HCmP3/lIJylkRxVQwAC2SQwOTk5MDDgdrsDgYCu69nUtWzsi67rgUDA7XYPDAxMTk6qdxHO6lZCiISdx0LhtIFMFq/A9w/EWCiuTZTewubhTAgRCoX8fj9GztLLj9ohAIFMCyQzDpTpvmeyfRoDU+8BnNWt5JLxOiOZxRvLuPz3D2T4DE/L4Yy7koNwxhaYgAAEZrCA1+t1u90zeAXTumput1vx/Cack9kQ6s53fBgzS0oge85vIpwl85HBeyEAgektMDAwEAgEpvc6ZK73gUBgYGBApX04qyhFK6PujGEzHgZLbCJ7Bs8QzqJ9HDAfAhCY+QK9vb24zizhzazrem9vr8rb4ayiFK2MujPuAEgsk/G7uj3RNoLd8xHO7BZHexCAQPYI/PTTT9nTmenYE0VAxWLTUcCePisCcsjARMIC9mxQy1YQziyJUAACEJixAorHvBm7/kmvmCKgYrGkuzNjK1AETDiR4I0skCX7EMJZlmwIdAMCEMiAgOIxLwM9myZNKgIqFpsmK52BbioCcsLARMICGdi6Zk0inJmpYB4EIDA7BBSPebMDI5G1VARULJZID2bHexQBE04keCMLZMkOhXCWJRsC3Xgm8E6L+NUWkbPB+r9fbRHvtMANAkkJKB7zkmpjRr9ZEVCx2IymSmrlFAE5YWAiYYGktlPq3oxwljpL1JS0wDst1pnMkNuQz5JWn9UVKB7zZrVRzJVXBFQsFrOpWb1QETDhRII3skCW7GcIZ1myIdCNsIDimJmcz361BXTTRqCnp6exsXHNmjVz5sxxuVy1tbWNjY09PT0ZXAHFY14Ge5jlTSsCKhbL8pXNYPcUATlhYCJhgQxuZblphDNZA9MZFpBTV7TpVcfDnVx1/MUYW0o6/eDBg5KSkrVr19rzSNKmpqbCwsKbN28m2fmmpiZN0y5evBijHlq1mpqaGGXSvcjtdlMmm2P2crlcmXpMv+IxL90+07d+RUDFYtPXId09VwRMOJHgjSyQ7k2pWD/CmSIUitkhEC2Q8fxXdr/oBuezF7OiT1GI0Z6/8vPzN23a1N/fz+9AOGOKlE80NjZSJHO5XDxU5na7e3p62traXC4XDaQ1NjamvGnLChWPebHrGRwcrK2tLSoqov1r8eLFe/fuHRwcjP2uzC7lT0RTU1MyPVEEVCwWrSc3b94sLCx8/vE1+X9JScmDB9n0zYjR1iTR+YqAnDBSO/HRyQ6Hw0HuG3fv7xrWU1u/obZjF2++XhDe3G9Wrm3vDxiWpvvHRDdRit+HcJZiUFSXjACHMNMJOZl9cSu+kbOmpqa8vLw//OEP9U9fa9euzc3Nzc/P7+rqog4jnCWz4WK8l5NZtOzldrsty8SoP8lFise8aK0Eg8GGhobc3NzIvOB0OltaWrL26wcQzqJt0xTO13X922+//fvf/558nYo7ajqCy/mhUOXG93gPX7pi1T9ueNPRENeJcCaEMA9noVBoYmJidHR0eHi4ubk5+R0LNUBARcA0k/HML249q6Pf+yKZ5WxQqVhEnka8detWcXHxW2+99fjxYyEEwpmSY5yF3G43jZnxhWUUxVxPX7W1tXw2k0q6XC4uGWdTCRZXPOaZ1q7r+tGjR3lEgY9ePOF0Or/88kvT92Z8JsJZujeBz+d7//33HQ5HkmOT1E/FHZXzTQon/vZNX8GCZ6PCmqY5HI6PTnaksP7IqhDOKJwNDw+Pjo5OTEyEnr9yhBChUMjv93s8HoSzdH+GUT8LcA6LnNh2lkuJOX9JQTgTQhw8eHDu3Lk//PADwtkL3JRO0XVm8pgZ3w3AE5zGaPzM5XKltAsWlSke80xruXbtWkFBAR2u6uvr3W63ruvBYPCbb74pKSmhiPbuu++Oj4+bvj2zM6dpOLPtqtDkt06qhKknijtqZNBJfs6e/26hnfl3m3Y6Xw/v8G9VvdsxMJ58zdFqQDiLOnKGcJb8JxM1JCDAmeyV3eKLW+KV3c9CGN0EQBUaklnCI2dCiIsXL/LV9JEjZz6fr6GhYfHixZqm5ebmVlVVRV5F1N/fv2nTpvz8fE3T8vPz9+/fPzExQf0cHx9vaWlZtmyZpmlOp3P79u0jIyNsQiN5N27c6OrqWrlypcPhyM/P//DDDw23Ixj6UF5e/tVXX8lnyugAIN8QMDU11d7evnz5cofD4XQ66+rqbt68WVJSYrghoL+/v7q62ul0apq2bNmy9vb2qakp6h5R1NTUPHz4cOvWrQ6H48SJE0KIR48e7d+/f/78+bSyO3bsePLkCa9R5ERbWxtdTMaLenp6XC7XmjVraA6lMY5ufNMAxzV+Y/omFI95ph344IMP6KD1ySefyBtFCHH9+vXf/va3R44ckTe6vDXJ0HDhIx/OP/300++++66srIw2omHnEULQ3kVb2eFwLF++XN6CQghd169cuVJZWUmnXJctW9bS0iLHRG4ryXEdRUDFYqbOQgi+5ix2OAsGg9u3b6eNUldXFwqFhBDffvst7edLly4dGhoSIjyOTmW6urqOHz9OFwsWFxe3tLQEg0G5D8S4evVqqmH+/Pl79uyRtyl3rKqqqqWlZd68ebm5uTt27KiqqqIm+F/DB1BuRWVaETBa3El4fnt/4M3KtZqmFS5c1NR9naYLFhT97Zs+uc6///jg10vDf5C8Wbn22MWbq96ucuTmOnJz31qzseX7QS7JqWvN1ppDHVeW/Ud4D897zbluW90/fnwYWezNyrWtV+8uXbFK07RFy5af/vd9LvPPnx4tKy2LnM8FEp5Q2Rw2lDE/rYlwZgM9mogUoHBGyYyWvrI7HNH4te3sS2NmVJ6XxpiIPK0phGhtbY0xclZTU5Ofn19fX9/Z2fnXv/61sLBw1apV9+7do1Z0XW9paXE6ncXFxYcOHTp//vzBgwfr6uooXQWDwfr6eqfTWVNT09nZ2dDQsHDhwpUrV3o8Hno79efPf/7z4sWLDx06dPr06fLyck3T9u3bR0cUIcTg4OCKFSu4kiNHjpSUlDgcjqNHj3IUMISzYDC4b98+h8NRXl5++vTpzz77rKysrLS0tLCwUD42XL9+vaioqLS09OTJk6dPn163bt2rr77K1VI427FjBx/nmpqa7t27t2rVqoULFzY0NHR2dtbX15eVlcW+BJuyV1tbm7xd+DymEILSm1zAENfkN6ZpWvGYF9m63+9fvXq1pmlFRUV9fX2RBQxzfD7f+vXr+VDNE0VFRdwHDg3FxcWG69gqKyt9Ph/V6fP5Nm7cyDXQhMPh2L9/P+08vHMayqxfv54r4bZmUjgTQgwNDS1dulTTtIKCgqtXrz5+/Pjtt9/WNC0vL6+zs5MAed1XrFhhIKqvr+d8FgwG//SnP0Weti4sLPzqq6+oKg5nBQUFc+fOpdo+/vjjtWvDgUZ+yR9Aw76h8iPvJLELJ5xIor3x065rNFpWvra6c3CCR9G2HWiU38LhrHDhorkF8+QVL1hQ1NR9nQpzOJv/62KqlksueWPl//zLYyhGNwRsO9BI49Mfn/6SG208ezn31TxN01J+g0JsYduWIpzZRo2GrAU4nPV7TQrLNwHwGFvCI2c+n6+qqmrVqlVeb7ixyJGzzz77TP4T+ezZsw6Ho7W1lXp29erVgoIC+Wgn97i1tXXBggV0wpTmX79+vbCw8IMPPqAf6fAgxzU6iixZsuTu3bs0NLJ58+aioqLr169zzYFAYNOmTQUFBdeuXZPr4ZEzGiQwHGDq6+s1TeNjg9frLSsrq6mp4XGUYDBYW1u7aNGi27dvM0VJScnmzZuHh4epoXPnzv3y+5HvnxBCPHnyhA9j3EN5ora2ds6cOXL2kpfyRWZyXOvp6ZkzZw4Prcnl0zSteMyLbJ12GE3TysrKHj16FFnAMKe1tZXGUGmIa2pq6sSJE3RkOnz4MBXm0OB0Ok+fPj01NfWvf/2LxnX4rwh54If+GHj8+PG6des4jggh+vv7i4uLNU1bt26d1+sNBoOff/45jf3wOCW3Nb3CGR/LDRP8EaA/uihRVVdXf/jhh1RS/lDwuhcUFHR1dYVCoX//+990Jlr+cNFHXtO0ioqKO3fuTE1NXbp0iYfZ6F5vDmeaph04cGB8fPz+/ft0GSu3kqQw7RuKOypnl1RNbH3/IAHuPdx6wS1OXr5duHBReLi9tOyfPz3iVjichbnWb2674W3vD/z+vw7Qhvjdpp3nh0IX3ILDmaZp1TUftPcH2m5433l3KzXBgY+LUTjjH7mermF94+794Q/U6wWfdl3jbqRkwvDJzdSPCGeZkke7JgIcuV7ZLQz5zHATAJdMIJxNTU0NDg5u3rzZ4XAcP/70sWlm4czQP/otTL9ndV2nRyeYDpn4fL7Kysra2loe3xJCTExMVFdXr1692u/38/G1peWl7586fPjwvHnzfvzxRyEEXc/Eh1LuDM0/ePAgzaEDAB2ZQqHQzp07XS4XJyoq09fXV1RUxOGso6NjwYIFhkesXb58OS8vj7IXxQ7DgBCFs2hJi7snT9AzMuTsxUujncHkxMYl0z2heMyL7AaHs9gn2iLf+OjRo0uXLu3du3fevGcDDLxp+HAu7zw1NTV06KKtPDo6WlFRoWna8uXL79+/T/XT5tM0jdJ/Y2N4pEHOczzOx1GS20oyOigCKhaL5KI5cgYiDcO/cjgbHx/fvHmzXED+K4g/fZqm7d+/nz+kLS3Prqwiw0AgQKNfhg9CW1sb1UyfQe4Y/23Dq5AqYapQETAl6YQr4VOHCxYtab1694JbnB8K/W7TzvCVHq/m/d9/fs0lOZzJZzz/ccNLZyQLFy46efm2HM7kWz75hgMOfJzGKJx1DIy/VfVueJR6iav16vAFt+CaS9+qPPu/Pu5GSiZ4C2Z2AuEss/5o/SUBOXIZ8lnkpWZc+KUqovzAvyj5V3Z+fv6xY8d47IeOtfKBVtf1wcHBo0ePbt++/Y033qCBBzqO0gFy/fr1Y2NjkQ3evn170aLwH5eRL34aU1NTE+cwroE6SYeZ1tbWvLy8y5cv81Ka8Hq9K1asqK6upovb5Lc8evSorKyMF/EbadU4AfCVUpHdo+N0JIUQwuPxrFy5Mj8//6OPPpIHFLmVyIkY4YwG1UyvLaO7OyNrS9McxWNeZOukpD5yput6V1dXaWlpJDtvGt5L5cB08OCzoQvaMXjvkvdVuXu/nNl8770XDz4wNLdgwYLe3l45oMhtyfUoTisCKhaL1ihnIMPq8I9yOJPHDmm00nDPLDvLI8HcBH2C2Jn/oKK+9fb2LliwQNM08ud3VVRUjI6Oyv3nVpIUpjoVAVOSTriSX+IXnTqs3PgeDX1dcAt+5hmPY11wCw5nKytWn+vzcw1rtob/tMh9Ne+Xs5ByOFu9ZRc/LE2+rM2Q4fg5Zwf+Fh655xtFPz79JY3J7fnvFm4rVRPyRszgNMJZBvHRtFGA8xZNcD6LkczUR874OWe/pJMvvviCTj1wDwyJxOfzbdu2TdO0+fPnb9my5S9/+cvhw4fnzp1Lx1FD3OFKaIJ+X+/atet8xOvSpUt0MtH0Gjg5aZkWEELQH/R8YJbfEq1Xhvk1NTVFRUWff/55RO/Oy6c1OTHw2o2MjGzfvj03N9fhcGzYsCHy9gguSRN0P6ZpAqPcZijPV6HV1tZGLkrTHMVjXmTrPIJlGFmJLElzWltb6XBCd4dcvHixvb2dsgVTmx7OeSblD04DvA8YWuQhHw4u8gR/LwVXm2R0UARULGZYF/7Rcq25JE0Eg8E//vGPtOIrVqwwDN/yusuRztCE4Ueunz5NkeEscnNwK0kKU9OKgKkKKBfcomtYX/terbzzGKZ5OE0OZxynqCcUzjRN+/j0RTmcrdlaw13lcPZ6QeGxizflYlxb69XhoiUuTdN+eeLaF0NB6hgPyHFVKZngbZ3ZCYSzzPqj9ZcEDOEsZ0P4bgD+JoDIpTTnpSqi/BAt63Bx+p3Lv2FbWlry8vLa29v5rAf9sqbjqGH4iiuhCfrbuq6uzjBf/tG0P/TbnA4YJ06cMB05o+Gx9957jy79lt9Cq8CLuDlDOKurq+PhEy4jTxjKy4voirSPPvooPz+/uLhY/ooFQzEhRIyr+w0HS34v3SIQeTKXC6R8QvGYF9muruv794eveqGLjXg/oZJDQ0MVFRWffPIJPV+DA1NhYSFfREg3C8uXA5oeznkm7RiGkZvIjtEJ9PDtdTG/H4yrTTI6KAIqFotcHZoTLSpFK9/Z2ZmXF75anF61tbU8Ri6PGp47d45r4CYUR85o4Jzfxb86uEK+pjBJYapQETAl6YQq4Tz0XNHk/zxwxSNnb/ym4sytUe5GtJEzeSiOwxmHLcNpTUqKdJFZ4cJFB//xFQU1eeiOW0x+grdgZicQzjLrj9ZfEkjfF5+bhiG5bUM4q6mp4VOQVIwu66FwRse/yKu7qCTlp8jTHHJzpv2RkxY1FxlT6Jozni+/ZWxsbP369XyLAzf39ddf5+Xl8fAMXZkuH5a4JE3EDmdUhg5+9IgNw9v5R7q63/S5ZW1tbaYjajTYFteVbdxcYhOKxzzTymlb0NmW999/n+4sCQaDV65cWbUqfPO/pmm0OYhU0zR5p+LzlbxpTAMTz6RwxiN2fO/IL181y+fgKCJwzbyV7969u2TJEh7vkQNKktFBEVCxmKmz+qM06O1ut5tuw8zPz6cnvzgcjrNnXzwpkUl37tzJN0fTVZWaptHFZHTlaOTduHzNGX0GY4QzDt9JCtNKKQImH024Bj59aRLKns/iS744nMlX6J+5NfrGb8LXR/IYG6cuvnrsglu0Xr27YFF45+Rgx8V45OyCW/DtmW/8psLhcBgueuNuJz8RbSe0eT7Cmc3gaC6WwDstJk/KiDZgRvPfeemS+qiVm4YhuXRkOJNPV/FzEPg42tER/rK5uro6vueRa9N1/cCB8G1K/HAKeu7U119/zUNNpv2RkxaNtZjerSkPWclvEUK0tLQY2o3sOd3KZ7hE+vHjx/wlM6bh7PHjx/wgNCHEDz/8MHfuXL53ldddnuCr/g2nKfmqf8P4GY202XmrphBC8ZgnrxdPW35DAGcCHjlzOBz0MC2+7y/ekTM5V+3atcvn8wUCgbq6OsqItEU4Na5YseLWrVvj4+MHDhyQC8iVJBkdFAEVi7GtYYIz0PNUYPJ/Cq/yo84+/fTT7u5uulo08lNDl6PRXbG3bt2iPCffrclnoiPv1uRHpnHHIkfOOJzt3bs3GAzSnUCG9VL/UREw+WhCNXQOTpSvrZYv85Jr5uvxX3POPfzFD/JpzfAfJG9XfX5tpGNgfNsH/y/G3Zqrt+w61+c71+dbvWUXbc5od2tS02f/11f6ViVvePmWArlvyU+rb5S0lkQ4SysvKo9b4J0WoTh+9qstQjGZ0aEo9lkeQzj78ssvnU5nSUnJyZMn6WlhFRUV8+bN43DGTxQrLS09cuSI4TlnHo+HniC6bt06et5YeXm5fI+kZTgTQty4caO4uFh+zllpaanT6ZSvYjaEM4piDoeD2qVHo23dutXlcnHPdV0/fvx4bm4uP7SM7hzkAqbhrKmpqbi4uKGh4fz580eOHFmyZIkh3pluac5h8mAYhTbDiBoNs82ZM8d0RM208pTMVDzmRWsrxndr5ubmHjp0iM+m8ZGejy6vvfYaPcyMz0TziI4cmHgmhQ8hhOlzzsIPfNq4kR5jFi017t69m/+W4GrltqKtZoz5ioCKxaI1xBmI9SInyIedq6qqfD5fKBTat28fFd68eTNf8UlzKirCYzBcleEPG/6McwGaMH3OWWQ4M/SZP1/R1jH2fEXA5KMJ1cB3UMpDXFw5P8mCHzPGI2cLipfO/3X4wd38Mn2A2aJly+WvhNI07Te/W8/3XZqOnF1wiz82PHt6sKZpnOS4V6maiL0hbFuKcGYbNRrKpIBpGJI7ZAhnuq53dnbS8/2LioqOHz9+7do1w6Ncp6amOjs76fn+mqbR42T5LInP5ztw4ACdVXE6natXr75y5QpfmWTaH0PSEkKMjIzs2bOHK6muruaxN+p85FuoXfrSAnouvMfjMXxDgK7r3333XXl5OYWDxYsXNzQ08ONJTcPZ9evXYzwnXZY0TPP3BPCpWEMBvjptzpw5McpEvislcxSPebHb6u/v37FjB20mOhFWW1truGFC3qPy8/P37Nlz586d6urw4AQPw5gGJp7J4cz0GwIMXwBgeLT94sWLjx07xslspo6c8QPe6Am0tNXoRmMaBKJH5zBpd3d3e3s7PRPO8D0Z9F5i3LBhg+U3BESGM9riVDn9icVfHxJ7dzJdqrijpiqg8MNm5YvD5Mr5JCOlNw5nb1auPXn59n9Wb3fk5ua95vzP32///NoIv5FT15qtNc3f9peWV4a/A+P1/N//14FzfS+eiMHF5NOaF9yCI6N88pQrT9WEqb/9MxHO7DdHixCYRQL0Tef0gAyXy8VXm7nd7p6ensbGRrpzMyPJLMnTmrNoK0ZfVcXQoFgsejupXMLhTM67qWwgDXUpAqYqoMRbjxzO2vsD0d7OqUu+WzNa4cj5HM7S+uWeadh6iVRpHs7o63t9Ph+++DwRVLwHAhB4WYCvP6OUZvjX5XIZrj97+d1p/EnxmJfGHkzzqhUBFYvZg4FwFpl7kpyT1nB2/u5U17De3h9Yty18baWmaXyXaJLdNn27PTuhZStyONOfv3IQzizhUAACEIhLgIbK2traamtrXU9fa9asaWxstPkiM0Ofsyo0GPo2LX5UBFQsZs8qI5yZhpJkZqY1nPHtnJTMlv1HWdsNbzK9jf1ee3ZCy1bMwxm++NwSDgUgAIEZIJBVoWE6eioCKhazRwDhLHY6SWBpWsNZ2w3vkjdWhr+9/jVnxf/Z/D8/uBPoofpb7NkJLVuRwxkXzkE4YwtMQAACM1ggq0LDdHRWBFQsNh0F7OmzIqB6BEHJaAL2bFDLVhDOLIlQAAIQmLECise8Gbv+Sa+YIqBisaS7M2MrUASMFjgwX10gS/YhhLMs2RDoBgQgkAEBxWNeBno2TZpUBFQsNk1WOgPdVARUjyAoGU0gA1vXrEmEMzMVzIMABGaHgOIxb3ZgJLKWioCKxRLpwex4jyJgtMCB+eoCWbJDIZxlyYZANyAAgQwIKB7zMtCzadKkIqBisWmy0hnopiKgegRByWgCGdi6Zk0inJmpYB4EIDA7BBSPebMDI5G1VARULJZID2bHexQBowUOzFcXyJIdCuEsSzYEugEBCGRAoLe3l79TKwPNT/MmdV3v7e1VWQk4qyhFK6Pu3O0R6ikEJSMFuj3RNoLd8xHO7BZHexCAQPYIDAwMBAKB7OnP9OpJIBAYGBhQ6TOcVZSilVF3/v4BwllSAt8/iLYR7J6PcGa3ONqDAASyR8Dr9Wbqm6OyByHhnrjdbq/Xq/J2OKsoRSuj7nzHl1Q0iRxJmm1z7viibQS75yOc2S2O9iAAgawSGBgYUEwYWdXtjHfG6/UqDptRV+Gc2CaL1xmDZwkHyuwZNhNCIJwl9nnBuyAAgRkiMDk5OTAw4Ha7A4EArj+z3Ki6rgcCAbfbPTAwMDk5aVmeC8CZKVQmEnYeCwnkswTy2fcPxFhIZcvYVAbhzCZoNAMBCGSzAI1P9Pb2/oRXTIHe3t5kxsDgHFP3xcIkne/4whEN9wdYprRuTxgqe85m8i9J83Cm63owGPT5fB6Pp7m5mUtjAgIQgAAEIAABCEAgrQJyONOfv3IQztKKjqm0Hg4AAAd+SURBVMohAAEIQAACEIBANAHzcCaECIVCfr8fI2fR4DAfAhCAAAQgAAEIpENADmdcfw7CGVtgAgIQgAAEIAABCNgpgHBmpzbaggAEIAABCEAAAhYCCGcWQFgMAQhAAAIQgAAE7BRAOLNTG21BAAIQgAAEIAABCwGEMwsgLIYABCAAAQhAAAJ2CiCc2amNtiAAAQhAAAIQgICFAMKZBRAWQwACEIAABCAAATsFEM7s1EZbEIAABCAAAQhAwEIA4cwCCIshAAEIQAACEICAnQIIZ3Zqoy0IQAACEIAABCBgIYBwZgGExRCAAAQgAAEIQMBOAYQzO7XRFgQgAAEIQAACELAQMA9nuq4Hg0Gfz4cvPrfww2IIQAACEIAABCCQUgE5nOnPXzkIZylFRmUQgAAEIAABCEBAVcA8nAkhQqGQ3+/HyJkqJMpBAAIQgAAEIACBVAjI4Yzry0E4YwtMQAACEIAABCAAATsFEM7s1EZbEIAABCAAAQhAwEIA4cwCCIshAAEIQAACEICAnQIIZ3Zqoy0IQAACEIAABCBgIYBwZgGExRCAAAQgAAEIQMBOAYQzO7XRFgQgAAEIQAACELAQQDizAMJiCEAAAhCAAAQgYKcAwpmd2mgLAhCAAAQgAAEIWAggnFkAYTEEIAABCEAAAhCwUwDhzE5ttAUBCEAAAhCAAAQsBBDOLICwGAIQgAAEIAABCNgpgHBmpzbaggAEIAABCEAAAhYCCGcWQFgMAQhAAAIQgAAE7BQwD2ehUGhiYmJ0dHR4eLi5udnODqEtCEAAAhCAAAQgMJsFmpubh4eHR0dHJyYmQs9fOUKIUCjk9/s9Hg/C2WzeP7DuEIAABCAAAQjYLGA+coZwZvNmQHMQgAAEIAABCECABBDOsCdAAAIQgAAEIACBLBJAOMuijYGuQAACEIAABCAAAYQz7AMQgAAEIAABCEAgiwQQzrJoY6ArEIAABCAAAQhAAOEM+wAEIAABCEAAAhDIIgGEsyzaGOgKBCAAAQhAAAIQQDjDPgABCEAAAhCAAASySADhLIs2BroCAQhAAAIQgAAEEM6wD0AAAhCAAAQgAIEsEkA4y6KNga5AAAIQgAAEIAABhDPsAxCAAAQgAAEIQCCLBMzDma7rwWDQ5/Phi8+zaFuhKxCAAAQgAAEIzAIBOZzpz185CGezYNNjFSEAAQhAAAIQyEYB83AmhAiFQn6/HyNn2bjR0CcIQAACEIAABGaugBzOeC1zEM7YAhMQgAAEIAABCEDATgGEMzu10RYEIAABCEAAAhCwEEA4swDCYghAAAIQgAAEIGCnAMKZndpoCwIQgAAEIAABCFgIIJxZAGExBCAAAQhAAAIQsFMgVjgLBAIjIyPNzc12dghtQQACEIAABCAAgdks0NzcPDIy4vf7g8EgO4Tv1pyamhobG7t///6pU6fGx8d5GSYgAAEIQAACEIAABNIkMD4+furUqfv37wcCgVAoxK08C2fj4+M///xzR0fH0NAQL8MEBCAAAQhAAAIQgECaBIaGhjo6On7++eexsTFjONN1fXJy8smTJz09Pd3d3WnqAaqFAAQgAAEIQAACEGCB7u7unp6eJ0+eTExMTE1N8fzwyBk9h3ZsbOzhw4dnzpzp6+vjxZiAAAQgAAEIQAACEEi5QF9f35kzZx4+fDg2NhYMBnVd5yaehbOpqanJyUm/39/X13fq1CnkMwbCBAQgAAEIQAACEEitAMctv98/OTkZCoVMwhndFkAnN2/dunXmzJnu7u6hoSHcH5DajYHaIAABCEAAAhCYtQLj4+NDQ0Pd3d10ovLJkyeTk5NTU1P60xez5NDP9G8oFJqYmBgdHX3w4EFPT09HR8epU6ea8YIABCAAAQhAAAIQSFrg1KlTHR0dPT09Dx488Pl8ExMTNGYmhzFd118KZ7quh0KhsbGxQCAwOjrq9Xrv3bs3MjLiifJyP31FWWicnb7CHo9neHjY2F6Un9PXjbhqRp/l7RMXXVyF4QxnWcAwjd8bDBLXxyquwvgMMrLH44mLLq7CcJ4WziMjI/fu3fN6vaOjo4FAIFoyC4czHkPjiWAwGAqFJicnx8fHKaj5o7x8T19RFhpnp6+w3+8fHR01thfl5/R1I66a0Wd5+8RFF1dhOMNZFjBM4/cGg8T1sYqrMD6DjOz3++Oii6swnKeFcyAQGBsbGx8fj7zIjEbOOImZhDN60oau61NPX6Hor+DTV/TlLy1JX2E6G/tSY9F/SF834qoZfZY3UVx0cRWGM5xlAcM0/dlqmGn6Y1x7XfoKY3+Wtw6cZQ3sG7JGNu8blKzka/8pkKmGM45vMSYMdcUoKYRIX2F6FEjs1nlp+roRV83oM28R7BsyBU3LjyKMXCrPiWuvS19h7M/2bBQ4w1kWMEzj9waDzIDfdVFHznglY0ykb/3jqhm/sORtFBddXIXhDGdZwDCNAwODxPWxiqswPoOMjD/qZAqaxmeQTeL6WMVV2LbPIMIZb02Tibi2WVyFbdvAJmslzUKfJYw0Du7CGc6ygDyNfSNhjbjo4iqM38/2bBQ4x3D+/+HdNoZR6Rj9AAAAAElFTkSuQmCC;" vertex="1" parent="1">
          <mxGeometry x="80" y="720" width="314.52" height="280" as="geometry" />
        </mxCell>
      </root>
    </mxGraphModel>
  </diagram>
</mxfile>
